<svg width="1600" height="106" viewBox="0 0 1600 106" fill="none" xmlns="http://www.w3.org/2000/svg">
<g clip-path="url(#clip0_8_25)">
<rect width="1600" height="106" fill="#002868"/>
<path d="M1587 1000C1587 1548.04 1234.26 1987 805 1987C375.736 1987 23 1548.04 23 1000C23 451.955 375.736 13 805 13C1234.26 13 1587 451.955 1587 1000Z" fill="#BF0A30" stroke="#BF0A30" stroke-width="26"/>
<path d="M6.64368 106V98.103H12.9017C14.2923 98.103 15.534 97.9043 16.6267 97.507C17.8187 97.0103 18.7623 96.0667 19.4577 94.676C20.153 93.2853 20.5007 91.1993 20.5007 88.418V16.6C20.5007 13.918 20.153 11.9313 19.4577 10.64C18.7623 9.34866 17.8187 8.50433 16.6267 8.107C15.534 7.70967 14.2923 7.511 12.9017 7.511H6.64368V-0.386007H58.0487V7.511H51.6417C50.251 7.511 48.9597 7.75933 47.7677 8.256C46.675 8.65333 45.781 9.54733 45.0857 10.938C44.3903 12.2293 44.0427 14.3153 44.0427 17.196V45.953H82.9317V17.196C82.9317 14.3153 82.584 12.2293 81.8887 10.938C81.1934 9.54733 80.2497 8.65333 79.0577 8.256C77.965 7.75933 76.7233 7.511 75.3327 7.511H68.9257V-0.386007H120.331V7.511H114.073C112.682 7.511 111.391 7.75933 110.199 8.256C109.106 8.65333 108.212 9.54733 107.517 10.938C106.821 12.2293 106.474 14.3153 106.474 17.196V89.163C106.474 91.7457 106.821 93.6827 107.517 94.974C108.212 96.2653 109.156 97.1097 110.348 97.507C111.54 97.9043 112.781 98.103 114.073 98.103H120.331V106H68.9257V98.103H75.3327C76.7233 98.103 77.965 97.9043 79.0577 97.507C80.2497 97.0103 81.1934 96.0667 81.8887 94.676C82.584 93.2853 82.9317 91.1993 82.9317 88.418V55.042H44.0427V88.418C44.0427 91.1993 44.3903 93.2853 45.0857 94.676C45.781 96.0667 46.675 97.0103 47.7677 97.507C48.9597 97.9043 50.251 98.103 51.6417 98.103H58.0487V106H6.64368ZM128.725 106V98.103H134.983C136.373 98.103 137.615 97.9043 138.708 97.507C139.9 97.1097 140.843 96.2653 141.539 94.974C142.234 93.6827 142.582 91.7457 142.582 89.163V17.196C142.582 14.3153 142.234 12.2293 141.539 10.938C140.943 9.54733 140.049 8.65333 138.857 8.256C137.764 7.75933 136.473 7.511 134.983 7.511H128.725V-0.386007H211.42L212.016 27.03H201.586L200.841 20.027C200.642 17.5437 200.145 15.5073 199.351 13.918C198.655 12.2293 197.662 10.938 196.371 10.044C195.079 9.14999 193.391 8.70299 191.305 8.70299H166.273V45.953H201.586V54.893H166.273V96.911H196.073C198.059 96.911 199.698 96.4143 200.99 95.421C202.281 94.4277 203.274 93.0867 203.97 91.398C204.764 89.7093 205.311 87.7723 205.609 85.587L206.801 78.584H217.082L216.039 106H128.725ZM222.493 106V98.103H224.281C226.069 98.103 227.659 97.805 229.049 97.209C230.44 96.613 231.682 95.57 232.774 94.08C233.966 92.4907 235.109 90.206 236.201 87.226L268.534 -0.386007H288.947L320.088 87.375C321.082 90.1563 322.125 92.3417 323.217 93.931C324.409 95.421 325.651 96.5137 326.942 97.209C328.333 97.805 329.823 98.103 331.412 98.103H334.094V106H284.924V98.103H290.735C292.225 98.103 293.666 97.656 295.056 96.762C296.447 95.868 297.142 94.378 297.142 92.292C297.142 91.4973 297.043 90.7027 296.844 89.908C296.745 89.1133 296.596 88.3683 296.397 87.673C296.199 86.9777 296 86.3817 295.801 85.885L290.586 70.985H254.379L250.058 83.799C249.86 84.5937 249.611 85.4877 249.313 86.481C249.015 87.4743 248.767 88.5173 248.568 89.61C248.37 90.6033 248.27 91.4973 248.27 92.292C248.27 94.1793 248.966 95.6197 250.356 96.613C251.747 97.6063 253.287 98.103 254.975 98.103H261.233V106H222.493ZM257.508 61.896H287.606L279.709 37.46C279.014 35.1753 278.269 32.7417 277.474 30.159C276.68 27.477 275.935 24.795 275.239 22.113C274.544 19.431 273.898 16.9477 273.302 14.663C272.905 16.2523 272.408 17.9907 271.812 19.878C271.216 21.666 270.62 23.5533 270.024 25.54C269.428 27.4273 268.783 29.3643 268.087 31.351C267.491 33.2383 266.895 35.0263 266.299 36.715L257.508 61.896ZM338.256 106V98.103H344.514C346.004 98.103 347.295 97.9043 348.388 97.507C349.58 97.0103 350.474 96.0667 351.07 94.676C351.765 93.2853 352.113 91.1993 352.113 88.418V16.6C352.113 13.918 351.765 11.9313 351.07 10.64C350.375 9.34866 349.431 8.50433 348.239 8.107C347.146 7.70967 345.905 7.511 344.514 7.511H338.256V-0.386007H387.426C398.452 -0.386007 407.889 1.55099 415.736 5.425C423.583 9.19966 429.593 14.9113 433.765 22.56C438.036 30.1093 440.172 39.546 440.172 50.87C440.172 61.6973 438.185 71.283 434.212 79.627C430.239 87.8717 424.328 94.3283 416.481 98.997C408.733 103.666 399.048 106 387.426 106H338.256ZM383.999 96.762C390.853 96.762 396.565 94.9243 401.134 91.249C405.703 87.5737 409.13 82.309 411.415 75.455C413.799 68.5017 414.991 60.257 414.991 50.721C414.991 41.2843 413.799 33.4867 411.415 27.328C409.13 21.07 405.703 16.4013 401.134 13.322C396.565 10.2427 390.903 8.70299 384.148 8.70299H375.655V96.762H383.999ZM452.48 106V98.103H458.738C460.228 98.103 461.519 97.9043 462.612 97.507C463.804 97.0103 464.698 96.0667 465.294 94.676C465.989 93.2853 466.337 91.1993 466.337 88.418V17.196C466.337 14.3153 465.989 12.2293 465.294 10.938C464.698 9.54733 463.804 8.65333 462.612 8.256C461.519 7.75933 460.228 7.511 458.738 7.511H452.48V-0.386007H503.885V7.511H497.627C496.236 7.511 494.945 7.70967 493.753 8.107C492.66 8.50433 491.766 9.34866 491.071 10.64C490.375 11.9313 490.028 13.918 490.028 16.6V96.911H517.742C520.026 96.911 521.963 96.4143 523.553 95.421C525.241 94.4277 526.582 92.9873 527.576 91.1C528.668 89.1133 529.513 86.7293 530.109 83.948L532.493 72.773H540.837L539.794 106H452.48ZM549.97 106V98.103H556.228C557.718 98.103 559.009 97.9043 560.102 97.507C561.294 97.0103 562.188 96.0667 562.784 94.676C563.479 93.2853 563.827 91.1993 563.827 88.418V17.196C563.827 14.3153 563.479 12.2293 562.784 10.938C562.188 9.54733 561.294 8.65333 560.102 8.256C559.009 7.75933 557.718 7.511 556.228 7.511H549.97V-0.386007H601.375V7.511H595.117C593.726 7.511 592.435 7.75933 591.243 8.256C590.051 8.65333 589.107 9.54733 588.412 10.938C587.816 12.2293 587.518 14.3153 587.518 17.196V88.418C587.518 91.1993 587.816 93.2853 588.412 94.676C589.107 96.0667 590.051 97.0103 591.243 97.507C592.435 97.9043 593.726 98.103 595.117 98.103H601.375V106H549.97ZM609.774 106V98.103H616.032C617.422 98.103 618.664 97.9043 619.757 97.507C620.949 97.0103 621.892 96.0667 622.588 94.676C623.283 93.2853 623.631 91.1993 623.631 88.418V16.6C623.631 13.918 623.283 11.9313 622.588 10.64C621.892 9.34866 620.949 8.50433 619.757 8.107C618.664 7.70967 617.422 7.511 616.032 7.511H609.774V-0.386007H642.852L695.449 73.965V16.6C695.449 13.918 695.101 11.9313 694.406 10.64C693.71 9.34866 692.767 8.50433 691.575 8.107C690.482 7.70967 689.24 7.511 687.85 7.511H681.592V-0.386007H720.481V7.511H714.223C712.832 7.511 711.541 7.75933 710.349 8.256C709.256 8.65333 708.362 9.54733 707.667 10.938C706.971 12.2293 706.624 14.3153 706.624 17.196V106H692.916L634.806 23.901V88.418C634.806 91.1993 635.153 93.2853 635.849 94.676C636.544 96.0667 637.438 97.0103 638.531 97.507C639.723 97.9043 641.014 98.103 642.405 98.103H648.663V106H609.774ZM727.198 106V98.103H733.456C734.847 98.103 736.089 97.9043 737.181 97.507C738.373 97.1097 739.317 96.2653 740.012 94.974C740.708 93.6827 741.055 91.7457 741.055 89.163V17.196C741.055 14.3153 740.708 12.2293 740.012 10.938C739.416 9.54733 738.522 8.65333 737.33 8.256C736.238 7.75933 734.946 7.511 733.456 7.511H727.198V-0.386007H809.893L810.489 27.03H800.059L799.314 20.027C799.116 17.5437 798.619 15.5073 797.824 13.918C797.129 12.2293 796.136 10.938 794.844 10.044C793.553 9.14999 791.864 8.70299 789.778 8.70299H764.746V45.953H800.059V54.893H764.746V96.911H794.546C796.533 96.911 798.172 96.4143 799.463 95.421C800.755 94.4277 801.748 93.0867 802.443 91.398C803.238 89.7093 803.784 87.7723 804.082 85.587L805.274 78.584H815.555L814.512 106H727.198ZM863.248 106V98.103H869.506C870.897 98.103 872.139 97.9043 873.231 97.507C874.423 97.0103 875.367 96.0667 876.062 94.676C876.758 93.2853 877.105 91.1993 877.105 88.418V16.6C877.105 13.918 876.758 11.9313 876.062 10.64C875.367 9.34866 874.423 8.50433 873.231 8.107C872.139 7.70967 870.897 7.511 869.506 7.511H863.248V-0.386007H914.653V7.511H908.246C906.856 7.511 905.564 7.75933 904.372 8.256C903.28 8.65333 902.386 9.54733 901.69 10.938C900.995 12.2293 900.647 14.3153 900.647 17.196V45.953H939.536V17.196C939.536 14.3153 939.189 12.2293 938.493 10.938C937.798 9.54733 936.854 8.65333 935.662 8.256C934.57 7.75933 933.328 7.511 931.937 7.511H925.53V-0.386007H976.935V7.511H970.677C969.287 7.511 967.995 7.75933 966.803 8.256C965.711 8.65333 964.817 9.54733 964.121 10.938C963.426 12.2293 963.078 14.3153 963.078 17.196V89.163C963.078 91.7457 963.426 93.6827 964.121 94.974C964.817 96.2653 965.76 97.1097 966.952 97.507C968.144 97.9043 969.386 98.103 970.677 98.103H976.935V106H925.53V98.103H931.937C933.328 98.103 934.57 97.9043 935.662 97.507C936.854 97.0103 937.798 96.0667 938.493 94.676C939.189 93.2853 939.536 91.1993 939.536 88.418V55.042H900.647V88.418C900.647 91.1993 900.995 93.2853 901.69 94.676C902.386 96.0667 903.28 97.0103 904.372 97.507C905.564 97.9043 906.856 98.103 908.246 98.103H914.653V106H863.248ZM1039.86 107.49C1028.54 107.49 1019.15 105.205 1011.7 100.636C1004.25 96.0667 998.64 89.6597 994.865 81.415C991.19 73.1703 989.352 63.535 989.352 52.509C989.352 41.483 991.19 31.8973 994.865 23.752C998.64 15.6067 1004.25 9.299 1011.7 4.829C1019.25 0.259663 1028.69 -2.025 1040.01 -2.025C1050.74 -2.025 1059.83 0.259663 1067.28 4.829C1074.83 9.299 1080.54 15.6563 1084.41 23.901C1088.29 32.0463 1090.23 41.632 1090.23 52.658C1090.23 63.684 1088.24 73.3193 1084.27 81.564C1080.39 89.7093 1074.73 96.0667 1067.28 100.636C1059.83 105.205 1050.69 107.49 1039.86 107.49ZM1039.86 97.805C1044.53 97.805 1048.46 96.8117 1051.63 94.825C1054.91 92.739 1057.54 89.759 1059.53 85.885C1061.52 82.011 1062.96 77.2927 1063.85 71.73C1064.75 66.1673 1065.19 59.81 1065.19 52.658C1065.19 45.506 1064.75 39.1487 1063.85 33.586C1062.96 28.0233 1061.52 23.305 1059.53 19.431C1057.54 15.557 1054.96 12.6267 1051.78 10.64C1048.6 8.65333 1044.68 7.66 1040.01 7.66C1035.34 7.66 1031.37 8.65333 1028.09 10.64C1024.81 12.6267 1022.18 15.557 1020.2 19.431C1018.21 23.305 1016.72 28.0233 1015.73 33.586C1014.83 39.1487 1014.38 45.506 1014.38 52.658C1014.38 59.81 1014.83 66.1673 1015.73 71.73C1016.72 77.2927 1018.21 82.011 1020.2 85.885C1022.18 89.759 1024.81 92.739 1028.09 94.825C1031.37 96.8117 1035.29 97.805 1039.86 97.805ZM1102.61 106V98.103H1108.87C1110.26 98.103 1111.5 97.9043 1112.59 97.507C1113.78 97.1097 1114.73 96.2653 1115.42 94.974C1116.12 93.6827 1116.47 91.7457 1116.47 89.163V16.6C1116.47 13.918 1116.12 11.9313 1115.42 10.64C1114.73 9.34866 1113.78 8.50433 1112.59 8.107C1111.5 7.70967 1110.26 7.511 1108.87 7.511H1102.61V-0.386007H1150.59C1160.02 -0.386007 1167.72 0.656994 1173.68 2.743C1179.74 4.82899 1184.21 7.95799 1187.09 12.13C1189.97 16.2027 1191.41 21.219 1191.41 27.179C1191.41 32.4437 1190.42 36.9137 1188.43 40.589C1186.45 44.2643 1183.91 47.294 1180.83 49.678C1177.75 52.062 1174.53 53.9493 1171.15 55.34L1188.88 85.885C1190.17 88.0703 1191.41 89.9577 1192.6 91.547C1193.8 93.037 1194.94 94.2787 1196.03 95.272C1197.22 96.2653 1198.47 97.0103 1199.76 97.507C1201.05 97.9043 1202.39 98.103 1203.78 98.103H1204.38V106H1199.46C1194.99 106 1191.06 105.851 1187.69 105.553C1184.41 105.156 1181.53 104.51 1179.05 103.616C1176.66 102.623 1174.53 101.232 1172.64 99.444C1170.75 97.656 1169.06 95.3713 1167.57 92.59L1149.84 59.81H1140.01V89.163C1140.01 91.7457 1140.36 93.6827 1141.05 94.974C1141.75 96.2653 1142.69 97.1097 1143.88 97.507C1145.07 97.9043 1146.32 98.103 1147.61 98.103H1154.01V106H1102.61ZM1148.35 51.168C1152.92 51.168 1156.5 50.3733 1159.08 48.784C1161.76 47.0953 1163.65 44.6617 1164.74 41.483C1165.83 38.205 1166.38 34.1323 1166.38 29.265C1166.38 24.199 1165.78 20.176 1164.59 17.196C1163.4 14.1167 1161.46 11.8817 1158.78 10.491C1156.1 9.10033 1152.52 8.405 1148.05 8.405H1140.01V51.168H1148.35ZM1207.96 106V98.103H1214.21C1215.7 98.103 1217 97.9043 1218.09 97.507C1219.28 97.0103 1220.17 96.0667 1220.77 94.676C1221.47 93.2853 1221.81 91.1993 1221.81 88.418V17.196C1221.81 14.3153 1221.47 12.2293 1220.77 10.938C1220.17 9.54733 1219.28 8.65333 1218.09 8.256C1217 7.75933 1215.7 7.511 1214.21 7.511H1207.96V-0.386007H1259.36V7.511H1253.1C1251.71 7.511 1250.42 7.75933 1249.23 8.256C1248.04 8.65333 1247.09 9.54733 1246.4 10.938C1245.8 12.2293 1245.5 14.3153 1245.5 17.196V88.418C1245.5 91.1993 1245.8 93.2853 1246.4 94.676C1247.09 96.0667 1248.04 97.0103 1249.23 97.507C1250.42 97.9043 1251.71 98.103 1253.1 98.103H1259.36V106H1207.96ZM1269.85 106V98.55L1325.72 8.70299H1296.37C1293.29 8.70299 1290.9 9.29899 1289.22 10.491C1287.53 11.5837 1286.34 13.1233 1285.64 15.11C1284.94 17.0967 1284.45 19.4807 1284.15 22.262L1283.4 30.308H1272.68L1273.42 -0.386007H1352.99V7.21299L1296.96 96.911H1329.15C1333.22 96.911 1336.35 96.2157 1338.53 94.825C1340.72 93.335 1342.26 91.4477 1343.15 89.163C1344.05 86.8783 1344.59 84.4943 1344.79 82.011L1345.54 75.306H1356.27L1355.52 106H1269.85ZM1421.53 107.49C1410.21 107.49 1400.82 105.205 1393.37 100.636C1385.92 96.0667 1380.31 89.6597 1376.53 81.415C1372.86 73.1703 1371.02 63.535 1371.02 52.509C1371.02 41.483 1372.86 31.8973 1376.53 23.752C1380.31 15.6067 1385.92 9.299 1393.37 4.829C1400.92 0.259663 1410.36 -2.025 1421.68 -2.025C1432.41 -2.025 1441.5 0.259663 1448.95 4.829C1456.5 9.299 1462.21 15.6563 1466.08 23.901C1469.96 32.0463 1471.89 41.632 1471.89 52.658C1471.89 63.684 1469.91 73.3193 1465.93 81.564C1462.06 89.7093 1456.4 96.0667 1448.95 100.636C1441.5 105.205 1432.36 107.49 1421.53 107.49ZM1421.53 97.805C1426.2 97.805 1430.12 96.8117 1433.3 94.825C1436.58 92.739 1439.21 89.759 1441.2 85.885C1443.18 82.011 1444.63 77.2927 1445.52 71.73C1446.41 66.1673 1446.86 59.81 1446.86 52.658C1446.86 45.506 1446.41 39.1487 1445.52 33.586C1444.63 28.0233 1443.18 23.305 1441.2 19.431C1439.21 15.557 1436.63 12.6267 1433.45 10.64C1430.27 8.65333 1426.35 7.66 1421.68 7.66C1417.01 7.66 1413.04 8.65333 1409.76 10.64C1406.48 12.6267 1403.85 15.557 1401.86 19.431C1399.88 23.305 1398.39 28.0233 1397.39 33.586C1396.5 39.1487 1396.05 45.506 1396.05 52.658C1396.05 59.81 1396.5 66.1673 1397.39 71.73C1398.39 77.2927 1399.88 82.011 1401.86 85.885C1403.85 89.759 1406.48 92.739 1409.76 94.825C1413.04 96.8117 1416.96 97.805 1421.53 97.805ZM1484.28 106V98.103H1490.53C1491.92 98.103 1493.17 97.9043 1494.26 97.507C1495.45 97.0103 1496.39 96.0667 1497.09 94.676C1497.78 93.2853 1498.13 91.1993 1498.13 88.418V16.6C1498.13 13.918 1497.78 11.9313 1497.09 10.64C1496.39 9.34866 1495.45 8.50433 1494.26 8.107C1493.17 7.70967 1491.92 7.511 1490.53 7.511H1484.28V-0.386007H1517.35L1569.95 73.965V16.6C1569.95 13.918 1569.6 11.9313 1568.91 10.64C1568.21 9.34866 1567.27 8.50433 1566.08 8.107C1564.98 7.70967 1563.74 7.511 1562.35 7.511H1556.09V-0.386007H1594.98V7.511H1588.72C1587.33 7.511 1586.04 7.75933 1584.85 8.256C1583.76 8.65333 1582.86 9.54733 1582.17 10.938C1581.47 12.2293 1581.13 14.3153 1581.13 17.196V106H1567.42L1509.31 23.901V88.418C1509.31 91.1993 1509.66 93.2853 1510.35 94.676C1511.05 96.0667 1511.94 97.0103 1513.03 97.507C1514.22 97.9043 1515.52 98.103 1516.91 98.103H1523.16V106H1484.28Z" fill="white"/>
</g>
<defs>
<clipPath id="clip0_8_25">
<rect width="1600" height="106" fill="white"/>
</clipPath>
</defs>
</svg>
