<svg xmlns="http://www.w3.org/2000/svg" xmlns:xlink="http://www.w3.org/1999/xlink" width="500" zoomAndPan="magnify" viewBox="0 0 375 374.999991" height="500" preserveAspectRatio="xMidYMid meet" version="1.0"><defs><g/><clipPath id="382297570d"><path d="M 350 46 L 360.761719 46 L 360.761719 330 L 350 330 Z M 350 46 " clip-rule="nonzero"/></clipPath><clipPath id="8a01571b72"><path d="M 14.261719 46 L 25 46 L 25 330 L 14.261719 330 Z M 14.261719 46 " clip-rule="nonzero"/></clipPath><clipPath id="058d6ff0b2"><path d="M 46 14.261719 L 330 14.261719 L 330 25 L 46 25 Z M 46 14.261719 " clip-rule="nonzero"/></clipPath><clipPath id="acd23834fd"><path d="M 46 350 L 330 350 L 330 360.761719 L 46 360.761719 Z M 46 350 " clip-rule="nonzero"/></clipPath><clipPath id="5a13e832da"><path d="M 329 14.261719 L 360.761719 14.261719 L 360.761719 47 L 329 47 Z M 329 14.261719 " clip-rule="nonzero"/></clipPath><clipPath id="6b41fdbea4"><path d="M 14.261719 14.261719 L 47 14.261719 L 47 47 L 14.261719 47 Z M 14.261719 14.261719 " clip-rule="nonzero"/></clipPath><clipPath id="08561aadae"><path d="M 329 329 L 360.761719 329 L 360.761719 360.761719 L 329 360.761719 Z M 329 329 " clip-rule="nonzero"/></clipPath><clipPath id="377bb38562"><path d="M 14.261719 329 L 47 329 L 47 360.761719 L 14.261719 360.761719 Z M 14.261719 329 " clip-rule="nonzero"/></clipPath><clipPath id="9aa5c438ae"><path d="M 338 56 L 347.59375 56 L 347.59375 319 L 338 319 Z M 338 56 " clip-rule="nonzero"/></clipPath><clipPath id="8bf94f1852"><path d="M 27.34375 56 L 37 56 L 37 319 L 27.34375 319 Z M 27.34375 56 " clip-rule="nonzero"/></clipPath><clipPath id="ec9742d420"><path d="M 56 27.515625 L 319 27.515625 L 319 38 L 56 38 Z M 56 27.515625 " clip-rule="nonzero"/></clipPath><clipPath id="63b6152462"><path d="M 56 338 L 319 338 L 319 347.765625 L 56 347.765625 Z M 56 338 " clip-rule="nonzero"/></clipPath><clipPath id="9ba54ec515"><path d="M 318 27.515625 L 347.59375 27.515625 L 347.59375 57 L 318 57 Z M 318 27.515625 " clip-rule="nonzero"/></clipPath><clipPath id="0fb8da50e2"><path d="M 27.34375 27.515625 L 57 27.515625 L 57 57 L 27.34375 57 Z M 27.34375 27.515625 " clip-rule="nonzero"/></clipPath><clipPath id="56594e0b24"><path d="M 318 318 L 347.59375 318 L 347.59375 347.765625 L 318 347.765625 Z M 318 318 " clip-rule="nonzero"/></clipPath><clipPath id="f8293b5a7b"><path d="M 27.34375 318 L 57 318 L 57 347.765625 L 27.34375 347.765625 Z M 27.34375 318 " clip-rule="nonzero"/></clipPath></defs><rect x="-37.5" width="450" fill="#002868" y="-37.499999" height="449.999989" fill-opacity="1"/><path fill="#bf0a30" d="M 363.792969 34.363281 L 375 34.363281 L 375 340.636719 L 363.792969 340.636719 Z M 363.792969 34.363281 " fill-opacity="1" fill-rule="nonzero"/><path fill="#bf0a30" d="M 0 34.363281 L 11.207031 34.363281 L 11.207031 340.636719 L 0 340.636719 Z M 0 34.363281 " fill-opacity="1" fill-rule="nonzero"/><path fill="#bf0a30" d="M 34.363281 0 L 340.636719 0 L 340.636719 11.207031 L 34.363281 11.207031 Z M 34.363281 0 " fill-opacity="1" fill-rule="nonzero"/><path fill="#bf0a30" d="M 34.363281 363.792969 L 340.636719 363.792969 L 340.636719 375 L 34.363281 375 Z M 34.363281 363.792969 " fill-opacity="1" fill-rule="nonzero"/><path fill="#bf0a30" d="M 363.792969 11.207031 L 363.792969 34.363281 L 375 34.363281 L 375 0 L 340.636719 0 L 340.636719 11.207031 Z M 363.792969 11.207031 " fill-opacity="1" fill-rule="nonzero"/><path fill="#bf0a30" d="M 11.207031 11.207031 L 34.363281 11.207031 L 34.363281 0 L 0 0 L 0 34.363281 L 11.207031 34.363281 Z M 11.207031 11.207031 " fill-opacity="1" fill-rule="nonzero"/><path fill="#bf0a30" d="M 363.792969 363.792969 L 340.636719 363.792969 L 340.636719 375 L 375 375 L 375 340.636719 L 363.792969 340.636719 Z M 363.792969 363.792969 " fill-opacity="1" fill-rule="nonzero"/><path fill="#bf0a30" d="M 11.207031 363.792969 L 11.207031 340.636719 L 0 340.636719 L 0 375 L 34.363281 375 L 34.363281 363.792969 Z M 11.207031 363.792969 " fill-opacity="1" fill-rule="nonzero"/><g clip-path="url(#382297570d)"><path fill="#bf0a30" d="M 350.410156 46.015625 L 360.761719 46.015625 L 360.761719 329.011719 L 350.410156 329.011719 Z M 350.410156 46.015625 " fill-opacity="1" fill-rule="nonzero"/></g><g clip-path="url(#8a01571b72)"><path fill="#bf0a30" d="M 14.261719 46.015625 L 24.617188 46.015625 L 24.617188 329.011719 L 14.261719 329.011719 Z M 14.261719 46.015625 " fill-opacity="1" fill-rule="nonzero"/></g><g clip-path="url(#058d6ff0b2)"><path fill="#bf0a30" d="M 46.015625 14.261719 L 329.011719 14.261719 L 329.011719 24.617188 L 46.015625 24.617188 Z M 46.015625 14.261719 " fill-opacity="1" fill-rule="nonzero"/></g><g clip-path="url(#acd23834fd)"><path fill="#bf0a30" d="M 46.015625 350.410156 L 329.011719 350.410156 L 329.011719 360.761719 L 46.015625 360.761719 Z M 46.015625 350.410156 " fill-opacity="1" fill-rule="nonzero"/></g><g clip-path="url(#5a13e832da)"><path fill="#bf0a30" d="M 350.410156 24.617188 L 350.410156 46.015625 L 360.761719 46.015625 L 360.761719 14.261719 L 329.011719 14.261719 L 329.011719 24.617188 Z M 350.410156 24.617188 " fill-opacity="1" fill-rule="nonzero"/></g><g clip-path="url(#6b41fdbea4)"><path fill="#bf0a30" d="M 24.617188 24.617188 L 46.015625 24.617188 L 46.015625 14.261719 L 14.261719 14.261719 L 14.261719 46.015625 L 24.617188 46.015625 Z M 24.617188 24.617188 " fill-opacity="1" fill-rule="nonzero"/></g><g clip-path="url(#08561aadae)"><path fill="#bf0a30" d="M 350.410156 350.410156 L 329.011719 350.410156 L 329.011719 360.761719 L 360.761719 360.761719 L 360.761719 329.011719 L 350.410156 329.011719 Z M 350.410156 350.410156 " fill-opacity="1" fill-rule="nonzero"/></g><g clip-path="url(#377bb38562)"><path fill="#bf0a30" d="M 24.617188 350.410156 L 24.617188 329.011719 L 14.261719 329.011719 L 14.261719 360.761719 L 46.015625 360.761719 L 46.015625 350.410156 Z M 24.617188 350.410156 " fill-opacity="1" fill-rule="nonzero"/></g><g clip-path="url(#9aa5c438ae)"><path fill="#bf0a30" d="M 338.023438 56.863281 L 347.59375 56.863281 L 347.59375 318.421875 L 338.023438 318.421875 Z M 338.023438 56.863281 " fill-opacity="1" fill-rule="nonzero"/></g><g clip-path="url(#8bf94f1852)"><path fill="#bf0a30" d="M 27.34375 56.863281 L 36.914062 56.863281 L 36.914062 318.421875 L 27.34375 318.421875 Z M 27.34375 56.863281 " fill-opacity="1" fill-rule="nonzero"/></g><g clip-path="url(#ec9742d420)"><path fill="#bf0a30" d="M 56.691406 27.515625 L 318.25 27.515625 L 318.25 37.085938 L 56.691406 37.085938 Z M 56.691406 27.515625 " fill-opacity="1" fill-rule="nonzero"/></g><g clip-path="url(#63b6152462)"><path fill="#bf0a30" d="M 56.691406 338.199219 L 318.25 338.199219 L 318.25 347.765625 L 56.691406 347.765625 Z M 56.691406 338.199219 " fill-opacity="1" fill-rule="nonzero"/></g><g clip-path="url(#9ba54ec515)"><path fill="#bf0a30" d="M 338.023438 37.085938 L 338.023438 56.863281 L 347.59375 56.863281 L 347.59375 27.515625 L 318.25 27.515625 L 318.25 37.085938 Z M 338.023438 37.085938 " fill-opacity="1" fill-rule="nonzero"/></g><g clip-path="url(#0fb8da50e2)"><path fill="#bf0a30" d="M 36.914062 37.085938 L 56.691406 37.085938 L 56.691406 27.515625 L 27.34375 27.515625 L 27.34375 56.863281 L 36.914062 56.863281 Z M 36.914062 37.085938 " fill-opacity="1" fill-rule="nonzero"/></g><g clip-path="url(#56594e0b24)"><path fill="#bf0a30" d="M 338.023438 338.199219 L 318.25 338.199219 L 318.25 347.765625 L 347.59375 347.765625 L 347.59375 318.421875 L 338.023438 318.421875 Z M 338.023438 338.199219 " fill-opacity="1" fill-rule="nonzero"/></g><g clip-path="url(#f8293b5a7b)"><path fill="#bf0a30" d="M 36.914062 338.199219 L 36.914062 318.421875 L 27.34375 318.421875 L 27.34375 347.765625 L 56.691406 347.765625 L 56.691406 338.199219 Z M 36.914062 338.199219 " fill-opacity="1" fill-rule="nonzero"/></g><g fill="#ffffff" fill-opacity="1"><g transform="translate(40.957033, 60.399993)"><g><path d="M 13.984375 0 L 13.984375 -6.78125 L 7.671875 -6.78125 L 7.671875 0 L 1.921875 0 L 1.921875 -17.890625 L 7.671875 -17.890625 L 7.671875 -11.359375 L 13.984375 -11.359375 L 13.984375 -17.890625 L 19.734375 -17.890625 L 19.734375 0 Z M 13.984375 0 "/></g></g></g><g fill="#ffffff" fill-opacity="1"><g transform="translate(62.608544, 60.399993)"><g><path d="M 1.921875 -17.890625 L 17.390625 -17.890625 L 17.390625 -13.59375 L 7.671875 -13.59375 L 7.671875 -11.125 L 15.984375 -11.125 L 15.984375 -7.015625 L 7.671875 -7.015625 L 7.671875 -4.296875 L 17.578125 -4.296875 L 17.578125 0 L 1.921875 0 Z M 1.921875 -17.890625 "/></g></g></g><g fill="#ffffff" fill-opacity="1"><g transform="translate(81.374919, 60.399993)"><g><path d="M 13.90625 0 L 13.15625 -2.515625 L 6.890625 -2.515625 L 6.140625 0 L 0.265625 0 L 6.78125 -17.890625 L 13.46875 -17.890625 L 20 0 Z M 8.09375 -6.53125 L 11.953125 -6.53125 L 10.09375 -12.890625 L 9.984375 -12.890625 Z M 8.09375 -6.53125 "/></g></g></g><g fill="#ffffff" fill-opacity="1"><g transform="translate(101.596856, 60.399993)"><g><path d="M 9.671875 -17.890625 C 15.929688 -17.890625 19.0625 -14.90625 19.0625 -8.9375 C 19.0625 -2.976562 15.929688 0 9.671875 0 L 1.921875 0 L 1.921875 -17.890625 Z M 7.671875 -4.296875 L 9.5625 -4.296875 C 11.976562 -4.296875 13.1875 -5.582031 13.1875 -8.15625 L 13.1875 -9.71875 C 13.1875 -12.300781 11.976562 -13.59375 9.5625 -13.59375 L 7.671875 -13.59375 Z M 7.671875 -4.296875 "/></g></g></g><g fill="#ffffff" fill-opacity="1"><g transform="translate(121.818794, 60.399993)"><g><path d="M 1.921875 -17.890625 L 7.671875 -17.890625 L 7.671875 -4.578125 L 16.84375 -4.578125 L 16.84375 0 L 1.921875 0 Z M 1.921875 -17.890625 "/></g></g></g><g fill="#ffffff" fill-opacity="1"><g transform="translate(139.155596, 60.399993)"><g><path d="M 2.1875 0 L 2.1875 -17.890625 L 7.9375 -17.890625 L 7.9375 0 Z M 2.1875 0 "/></g></g></g><g fill="#ffffff" fill-opacity="1"><g transform="translate(149.266565, 60.399993)"><g><path d="M 14.71875 0 L 7.203125 -8.6875 L 7.203125 0 L 1.921875 0 L 1.921875 -17.890625 L 6.9375 -17.890625 L 14.453125 -9.078125 L 14.453125 -17.890625 L 19.734375 -17.890625 L 19.734375 0 Z M 14.71875 0 "/></g></g></g><g fill="#ffffff" fill-opacity="1"><g transform="translate(170.918076, 60.399993)"><g><path d="M 1.921875 -17.890625 L 17.390625 -17.890625 L 17.390625 -13.59375 L 7.671875 -13.59375 L 7.671875 -11.125 L 15.984375 -11.125 L 15.984375 -7.015625 L 7.671875 -7.015625 L 7.671875 -4.296875 L 17.578125 -4.296875 L 17.578125 0 L 1.921875 0 Z M 1.921875 -17.890625 "/></g></g></g><g fill="#ffffff" fill-opacity="1"><g transform="translate(189.684451, 60.399993)"><g/></g></g><g fill="#ffffff" fill-opacity="1"><g transform="translate(198.339857, 60.399993)"><g><path d="M 13.984375 0 L 13.984375 -6.78125 L 7.671875 -6.78125 L 7.671875 0 L 1.921875 0 L 1.921875 -17.890625 L 7.671875 -17.890625 L 7.671875 -11.359375 L 13.984375 -11.359375 L 13.984375 -17.890625 L 19.734375 -17.890625 L 19.734375 0 Z M 13.984375 0 "/></g></g></g><g fill="#ffffff" fill-opacity="1"><g transform="translate(219.991368, 60.399993)"><g><path d="M 10.8125 -18.203125 C 13.894531 -18.203125 16.273438 -17.410156 17.953125 -15.828125 C 19.640625 -14.253906 20.484375 -11.957031 20.484375 -8.9375 C 20.484375 -5.925781 19.640625 -3.628906 17.953125 -2.046875 C 16.273438 -0.472656 13.894531 0.3125 10.8125 0.3125 C 7.726562 0.3125 5.347656 -0.46875 3.671875 -2.03125 C 2.003906 -3.601562 1.171875 -5.90625 1.171875 -8.9375 C 1.171875 -11.976562 2.003906 -14.28125 3.671875 -15.84375 C 5.347656 -17.414062 7.726562 -18.203125 10.8125 -18.203125 Z M 10.8125 -13.90625 C 9.582031 -13.90625 8.644531 -13.53125 8 -12.78125 C 7.363281 -12.039062 7.046875 -11.039062 7.046875 -9.78125 L 7.046875 -8.109375 C 7.046875 -6.847656 7.363281 -5.84375 8 -5.09375 C 8.644531 -4.351562 9.582031 -3.984375 10.8125 -3.984375 C 12.039062 -3.984375 12.976562 -4.351562 13.625 -5.09375 C 14.28125 -5.84375 14.609375 -6.847656 14.609375 -8.109375 L 14.609375 -9.78125 C 14.609375 -11.039062 14.28125 -12.039062 13.625 -12.78125 C 12.976562 -13.53125 12.039062 -13.90625 10.8125 -13.90625 Z M 10.8125 -13.90625 "/></g></g></g><g fill="#ffffff" fill-opacity="1"><g transform="translate(241.642879, 60.399993)"><g><path d="M 18.90625 -12.40625 C 18.90625 -11.3125 18.609375 -10.320312 18.015625 -9.4375 C 17.429688 -8.550781 16.570312 -7.898438 15.4375 -7.484375 L 19.421875 0 L 12.96875 0 L 9.796875 -6.53125 L 7.671875 -6.53125 L 7.671875 0 L 1.921875 0 L 1.921875 -17.890625 L 12.875 -17.890625 C 14.15625 -17.890625 15.25 -17.640625 16.15625 -17.140625 C 17.070312 -16.648438 17.757812 -15.984375 18.21875 -15.140625 C 18.675781 -14.304688 18.90625 -13.394531 18.90625 -12.40625 Z M 13.046875 -12.171875 C 13.046875 -12.640625 12.890625 -13.03125 12.578125 -13.34375 C 12.265625 -13.65625 11.882812 -13.8125 11.4375 -13.8125 L 7.671875 -13.8125 L 7.671875 -10.5 L 11.4375 -10.5 C 11.882812 -10.5 12.265625 -10.660156 12.578125 -10.984375 C 12.890625 -11.304688 13.046875 -11.703125 13.046875 -12.171875 Z M 13.046875 -12.171875 "/></g></g></g><g fill="#ffffff" fill-opacity="1"><g transform="translate(261.864816, 60.399993)"><g><path d="M 2.1875 0 L 2.1875 -17.890625 L 7.9375 -17.890625 L 7.9375 0 Z M 2.1875 0 "/></g></g></g><g fill="#ffffff" fill-opacity="1"><g transform="translate(271.975785, 60.399993)"><g><path d="M 9.46875 -4.296875 L 17.96875 -4.296875 L 17.96875 0 L 0.625 0 L 0.625 -1.84375 L 8.921875 -13.59375 L 1.25 -13.59375 L 1.25 -17.890625 L 17.765625 -17.890625 L 17.765625 -16.046875 Z M 9.46875 -4.296875 "/></g></g></g><g fill="#ffffff" fill-opacity="1"><g transform="translate(290.742172, 60.399993)"><g><path d="M 10.8125 -18.203125 C 13.894531 -18.203125 16.273438 -17.410156 17.953125 -15.828125 C 19.640625 -14.253906 20.484375 -11.957031 20.484375 -8.9375 C 20.484375 -5.925781 19.640625 -3.628906 17.953125 -2.046875 C 16.273438 -0.472656 13.894531 0.3125 10.8125 0.3125 C 7.726562 0.3125 5.347656 -0.46875 3.671875 -2.03125 C 2.003906 -3.601562 1.171875 -5.90625 1.171875 -8.9375 C 1.171875 -11.976562 2.003906 -14.28125 3.671875 -15.84375 C 5.347656 -17.414062 7.726562 -18.203125 10.8125 -18.203125 Z M 10.8125 -13.90625 C 9.582031 -13.90625 8.644531 -13.53125 8 -12.78125 C 7.363281 -12.039062 7.046875 -11.039062 7.046875 -9.78125 L 7.046875 -8.109375 C 7.046875 -6.847656 7.363281 -5.84375 8 -5.09375 C 8.644531 -4.351562 9.582031 -3.984375 10.8125 -3.984375 C 12.039062 -3.984375 12.976562 -4.351562 13.625 -5.09375 C 14.28125 -5.84375 14.609375 -6.847656 14.609375 -8.109375 L 14.609375 -9.78125 C 14.609375 -11.039062 14.28125 -12.039062 13.625 -12.78125 C 12.976562 -13.53125 12.039062 -13.90625 10.8125 -13.90625 Z M 10.8125 -13.90625 "/></g></g></g><g fill="#ffffff" fill-opacity="1"><g transform="translate(312.393683, 60.399993)"><g><path d="M 14.71875 0 L 7.203125 -8.6875 L 7.203125 0 L 1.921875 0 L 1.921875 -17.890625 L 6.9375 -17.890625 L 14.453125 -9.078125 L 14.453125 -17.890625 L 19.734375 -17.890625 L 19.734375 0 Z M 14.71875 0 "/></g></g></g><g fill="#ffffff" fill-opacity="1"><g transform="translate(40.957033, 90.180551)"><g><path d="M 13.984375 0 L 13.984375 -6.78125 L 7.671875 -6.78125 L 7.671875 0 L 1.921875 0 L 1.921875 -17.890625 L 7.671875 -17.890625 L 7.671875 -11.359375 L 13.984375 -11.359375 L 13.984375 -17.890625 L 19.734375 -17.890625 L 19.734375 0 Z M 13.984375 0 "/></g></g></g><g fill="#ffffff" fill-opacity="1"><g transform="translate(62.608544, 90.180551)"><g><path d="M 1.921875 -17.890625 L 17.390625 -17.890625 L 17.390625 -13.59375 L 7.671875 -13.59375 L 7.671875 -11.125 L 15.984375 -11.125 L 15.984375 -7.015625 L 7.671875 -7.015625 L 7.671875 -4.296875 L 17.578125 -4.296875 L 17.578125 0 L 1.921875 0 Z M 1.921875 -17.890625 "/></g></g></g><g fill="#ffffff" fill-opacity="1"><g transform="translate(81.374919, 90.180551)"><g><path d="M 13.90625 0 L 13.15625 -2.515625 L 6.890625 -2.515625 L 6.140625 0 L 0.265625 0 L 6.78125 -17.890625 L 13.46875 -17.890625 L 20 0 Z M 8.09375 -6.53125 L 11.953125 -6.53125 L 10.09375 -12.890625 L 9.984375 -12.890625 Z M 8.09375 -6.53125 "/></g></g></g><g fill="#ffffff" fill-opacity="1"><g transform="translate(101.596856, 90.180551)"><g><path d="M 9.671875 -17.890625 C 15.929688 -17.890625 19.0625 -14.90625 19.0625 -8.9375 C 19.0625 -2.976562 15.929688 0 9.671875 0 L 1.921875 0 L 1.921875 -17.890625 Z M 7.671875 -4.296875 L 9.5625 -4.296875 C 11.976562 -4.296875 13.1875 -5.582031 13.1875 -8.15625 L 13.1875 -9.71875 C 13.1875 -12.300781 11.976562 -13.59375 9.5625 -13.59375 L 7.671875 -13.59375 Z M 7.671875 -4.296875 "/></g></g></g><g fill="#ffffff" fill-opacity="1"><g transform="translate(121.818794, 90.180551)"><g><path d="M 1.921875 -17.890625 L 7.671875 -17.890625 L 7.671875 -4.578125 L 16.84375 -4.578125 L 16.84375 0 L 1.921875 0 Z M 1.921875 -17.890625 "/></g></g></g><g fill="#ffffff" fill-opacity="1"><g transform="translate(139.155596, 90.180551)"><g><path d="M 2.1875 0 L 2.1875 -17.890625 L 7.9375 -17.890625 L 7.9375 0 Z M 2.1875 0 "/></g></g></g><g fill="#ffffff" fill-opacity="1"><g transform="translate(149.266565, 90.180551)"><g><path d="M 14.71875 0 L 7.203125 -8.6875 L 7.203125 0 L 1.921875 0 L 1.921875 -17.890625 L 6.9375 -17.890625 L 14.453125 -9.078125 L 14.453125 -17.890625 L 19.734375 -17.890625 L 19.734375 0 Z M 14.71875 0 "/></g></g></g><g fill="#ffffff" fill-opacity="1"><g transform="translate(170.918076, 90.180551)"><g><path d="M 1.921875 -17.890625 L 17.390625 -17.890625 L 17.390625 -13.59375 L 7.671875 -13.59375 L 7.671875 -11.125 L 15.984375 -11.125 L 15.984375 -7.015625 L 7.671875 -7.015625 L 7.671875 -4.296875 L 17.578125 -4.296875 L 17.578125 0 L 1.921875 0 Z M 1.921875 -17.890625 "/></g></g></g><g fill="#ffffff" fill-opacity="1"><g transform="translate(189.684451, 90.180551)"><g/></g></g><g fill="#ffffff" fill-opacity="1"><g transform="translate(198.339857, 90.180551)"><g><path d="M 13.984375 0 L 13.984375 -6.78125 L 7.671875 -6.78125 L 7.671875 0 L 1.921875 0 L 1.921875 -17.890625 L 7.671875 -17.890625 L 7.671875 -11.359375 L 13.984375 -11.359375 L 13.984375 -17.890625 L 19.734375 -17.890625 L 19.734375 0 Z M 13.984375 0 "/></g></g></g><g fill="#ffffff" fill-opacity="1"><g transform="translate(219.991368, 90.180551)"><g><path d="M 10.8125 -18.203125 C 13.894531 -18.203125 16.273438 -17.410156 17.953125 -15.828125 C 19.640625 -14.253906 20.484375 -11.957031 20.484375 -8.9375 C 20.484375 -5.925781 19.640625 -3.628906 17.953125 -2.046875 C 16.273438 -0.472656 13.894531 0.3125 10.8125 0.3125 C 7.726562 0.3125 5.347656 -0.46875 3.671875 -2.03125 C 2.003906 -3.601562 1.171875 -5.90625 1.171875 -8.9375 C 1.171875 -11.976562 2.003906 -14.28125 3.671875 -15.84375 C 5.347656 -17.414062 7.726562 -18.203125 10.8125 -18.203125 Z M 10.8125 -13.90625 C 9.582031 -13.90625 8.644531 -13.53125 8 -12.78125 C 7.363281 -12.039062 7.046875 -11.039062 7.046875 -9.78125 L 7.046875 -8.109375 C 7.046875 -6.847656 7.363281 -5.84375 8 -5.09375 C 8.644531 -4.351562 9.582031 -3.984375 10.8125 -3.984375 C 12.039062 -3.984375 12.976562 -4.351562 13.625 -5.09375 C 14.28125 -5.84375 14.609375 -6.847656 14.609375 -8.109375 L 14.609375 -9.78125 C 14.609375 -11.039062 14.28125 -12.039062 13.625 -12.78125 C 12.976562 -13.53125 12.039062 -13.90625 10.8125 -13.90625 Z M 10.8125 -13.90625 "/></g></g></g><g fill="#ffffff" fill-opacity="1"><g transform="translate(241.642879, 90.180551)"><g><path d="M 18.90625 -12.40625 C 18.90625 -11.3125 18.609375 -10.320312 18.015625 -9.4375 C 17.429688 -8.550781 16.570312 -7.898438 15.4375 -7.484375 L 19.421875 0 L 12.96875 0 L 9.796875 -6.53125 L 7.671875 -6.53125 L 7.671875 0 L 1.921875 0 L 1.921875 -17.890625 L 12.875 -17.890625 C 14.15625 -17.890625 15.25 -17.640625 16.15625 -17.140625 C 17.070312 -16.648438 17.757812 -15.984375 18.21875 -15.140625 C 18.675781 -14.304688 18.90625 -13.394531 18.90625 -12.40625 Z M 13.046875 -12.171875 C 13.046875 -12.640625 12.890625 -13.03125 12.578125 -13.34375 C 12.265625 -13.65625 11.882812 -13.8125 11.4375 -13.8125 L 7.671875 -13.8125 L 7.671875 -10.5 L 11.4375 -10.5 C 11.882812 -10.5 12.265625 -10.660156 12.578125 -10.984375 C 12.890625 -11.304688 13.046875 -11.703125 13.046875 -12.171875 Z M 13.046875 -12.171875 "/></g></g></g><g fill="#ffffff" fill-opacity="1"><g transform="translate(261.864816, 90.180551)"><g><path d="M 2.1875 0 L 2.1875 -17.890625 L 7.9375 -17.890625 L 7.9375 0 Z M 2.1875 0 "/></g></g></g><g fill="#ffffff" fill-opacity="1"><g transform="translate(271.975785, 90.180551)"><g><path d="M 9.46875 -4.296875 L 17.96875 -4.296875 L 17.96875 0 L 0.625 0 L 0.625 -1.84375 L 8.921875 -13.59375 L 1.25 -13.59375 L 1.25 -17.890625 L 17.765625 -17.890625 L 17.765625 -16.046875 Z M 9.46875 -4.296875 "/></g></g></g><g fill="#ffffff" fill-opacity="1"><g transform="translate(290.742172, 90.180551)"><g><path d="M 10.8125 -18.203125 C 13.894531 -18.203125 16.273438 -17.410156 17.953125 -15.828125 C 19.640625 -14.253906 20.484375 -11.957031 20.484375 -8.9375 C 20.484375 -5.925781 19.640625 -3.628906 17.953125 -2.046875 C 16.273438 -0.472656 13.894531 0.3125 10.8125 0.3125 C 7.726562 0.3125 5.347656 -0.46875 3.671875 -2.03125 C 2.003906 -3.601562 1.171875 -5.90625 1.171875 -8.9375 C 1.171875 -11.976562 2.003906 -14.28125 3.671875 -15.84375 C 5.347656 -17.414062 7.726562 -18.203125 10.8125 -18.203125 Z M 10.8125 -13.90625 C 9.582031 -13.90625 8.644531 -13.53125 8 -12.78125 C 7.363281 -12.039062 7.046875 -11.039062 7.046875 -9.78125 L 7.046875 -8.109375 C 7.046875 -6.847656 7.363281 -5.84375 8 -5.09375 C 8.644531 -4.351562 9.582031 -3.984375 10.8125 -3.984375 C 12.039062 -3.984375 12.976562 -4.351562 13.625 -5.09375 C 14.28125 -5.84375 14.609375 -6.847656 14.609375 -8.109375 L 14.609375 -9.78125 C 14.609375 -11.039062 14.28125 -12.039062 13.625 -12.78125 C 12.976562 -13.53125 12.039062 -13.90625 10.8125 -13.90625 Z M 10.8125 -13.90625 "/></g></g></g><g fill="#ffffff" fill-opacity="1"><g transform="translate(312.393683, 90.180551)"><g><path d="M 14.71875 0 L 7.203125 -8.6875 L 7.203125 0 L 1.921875 0 L 1.921875 -17.890625 L 6.9375 -17.890625 L 14.453125 -9.078125 L 14.453125 -17.890625 L 19.734375 -17.890625 L 19.734375 0 Z M 14.71875 0 "/></g></g></g><g fill="#ffffff" fill-opacity="1"><g transform="translate(40.957033, 120.470822)"><g><path d="M 13.984375 0 L 13.984375 -6.78125 L 7.671875 -6.78125 L 7.671875 0 L 1.921875 0 L 1.921875 -17.890625 L 7.671875 -17.890625 L 7.671875 -11.359375 L 13.984375 -11.359375 L 13.984375 -17.890625 L 19.734375 -17.890625 L 19.734375 0 Z M 13.984375 0 "/></g></g></g><g fill="#ffffff" fill-opacity="1"><g transform="translate(62.608544, 120.470822)"><g><path d="M 1.921875 -17.890625 L 17.390625 -17.890625 L 17.390625 -13.59375 L 7.671875 -13.59375 L 7.671875 -11.125 L 15.984375 -11.125 L 15.984375 -7.015625 L 7.671875 -7.015625 L 7.671875 -4.296875 L 17.578125 -4.296875 L 17.578125 0 L 1.921875 0 Z M 1.921875 -17.890625 "/></g></g></g><g fill="#ffffff" fill-opacity="1"><g transform="translate(81.374919, 120.470822)"><g><path d="M 13.90625 0 L 13.15625 -2.515625 L 6.890625 -2.515625 L 6.140625 0 L 0.265625 0 L 6.78125 -17.890625 L 13.46875 -17.890625 L 20 0 Z M 8.09375 -6.53125 L 11.953125 -6.53125 L 10.09375 -12.890625 L 9.984375 -12.890625 Z M 8.09375 -6.53125 "/></g></g></g><g fill="#ffffff" fill-opacity="1"><g transform="translate(101.596856, 120.470822)"><g><path d="M 9.671875 -17.890625 C 15.929688 -17.890625 19.0625 -14.90625 19.0625 -8.9375 C 19.0625 -2.976562 15.929688 0 9.671875 0 L 1.921875 0 L 1.921875 -17.890625 Z M 7.671875 -4.296875 L 9.5625 -4.296875 C 11.976562 -4.296875 13.1875 -5.582031 13.1875 -8.15625 L 13.1875 -9.71875 C 13.1875 -12.300781 11.976562 -13.59375 9.5625 -13.59375 L 7.671875 -13.59375 Z M 7.671875 -4.296875 "/></g></g></g><g fill="#ffffff" fill-opacity="1"><g transform="translate(121.818794, 120.470822)"><g><path d="M 1.921875 -17.890625 L 7.671875 -17.890625 L 7.671875 -4.578125 L 16.84375 -4.578125 L 16.84375 0 L 1.921875 0 Z M 1.921875 -17.890625 "/></g></g></g><g fill="#ffffff" fill-opacity="1"><g transform="translate(139.155596, 120.470822)"><g><path d="M 2.1875 0 L 2.1875 -17.890625 L 7.9375 -17.890625 L 7.9375 0 Z M 2.1875 0 "/></g></g></g><g fill="#ffffff" fill-opacity="1"><g transform="translate(149.266565, 120.470822)"><g><path d="M 14.71875 0 L 7.203125 -8.6875 L 7.203125 0 L 1.921875 0 L 1.921875 -17.890625 L 6.9375 -17.890625 L 14.453125 -9.078125 L 14.453125 -17.890625 L 19.734375 -17.890625 L 19.734375 0 Z M 14.71875 0 "/></g></g></g><g fill="#ffffff" fill-opacity="1"><g transform="translate(170.918076, 120.470822)"><g><path d="M 1.921875 -17.890625 L 17.390625 -17.890625 L 17.390625 -13.59375 L 7.671875 -13.59375 L 7.671875 -11.125 L 15.984375 -11.125 L 15.984375 -7.015625 L 7.671875 -7.015625 L 7.671875 -4.296875 L 17.578125 -4.296875 L 17.578125 0 L 1.921875 0 Z M 1.921875 -17.890625 "/></g></g></g><g fill="#ffffff" fill-opacity="1"><g transform="translate(189.684451, 120.470822)"><g/></g></g><g fill="#ffffff" fill-opacity="1"><g transform="translate(198.339857, 120.470822)"><g><path d="M 13.984375 0 L 13.984375 -6.78125 L 7.671875 -6.78125 L 7.671875 0 L 1.921875 0 L 1.921875 -17.890625 L 7.671875 -17.890625 L 7.671875 -11.359375 L 13.984375 -11.359375 L 13.984375 -17.890625 L 19.734375 -17.890625 L 19.734375 0 Z M 13.984375 0 "/></g></g></g><g fill="#ffffff" fill-opacity="1"><g transform="translate(219.991368, 120.470822)"><g><path d="M 10.8125 -18.203125 C 13.894531 -18.203125 16.273438 -17.410156 17.953125 -15.828125 C 19.640625 -14.253906 20.484375 -11.957031 20.484375 -8.9375 C 20.484375 -5.925781 19.640625 -3.628906 17.953125 -2.046875 C 16.273438 -0.472656 13.894531 0.3125 10.8125 0.3125 C 7.726562 0.3125 5.347656 -0.46875 3.671875 -2.03125 C 2.003906 -3.601562 1.171875 -5.90625 1.171875 -8.9375 C 1.171875 -11.976562 2.003906 -14.28125 3.671875 -15.84375 C 5.347656 -17.414062 7.726562 -18.203125 10.8125 -18.203125 Z M 10.8125 -13.90625 C 9.582031 -13.90625 8.644531 -13.53125 8 -12.78125 C 7.363281 -12.039062 7.046875 -11.039062 7.046875 -9.78125 L 7.046875 -8.109375 C 7.046875 -6.847656 7.363281 -5.84375 8 -5.09375 C 8.644531 -4.351562 9.582031 -3.984375 10.8125 -3.984375 C 12.039062 -3.984375 12.976562 -4.351562 13.625 -5.09375 C 14.28125 -5.84375 14.609375 -6.847656 14.609375 -8.109375 L 14.609375 -9.78125 C 14.609375 -11.039062 14.28125 -12.039062 13.625 -12.78125 C 12.976562 -13.53125 12.039062 -13.90625 10.8125 -13.90625 Z M 10.8125 -13.90625 "/></g></g></g><g fill="#ffffff" fill-opacity="1"><g transform="translate(241.642879, 120.470822)"><g><path d="M 18.90625 -12.40625 C 18.90625 -11.3125 18.609375 -10.320312 18.015625 -9.4375 C 17.429688 -8.550781 16.570312 -7.898438 15.4375 -7.484375 L 19.421875 0 L 12.96875 0 L 9.796875 -6.53125 L 7.671875 -6.53125 L 7.671875 0 L 1.921875 0 L 1.921875 -17.890625 L 12.875 -17.890625 C 14.15625 -17.890625 15.25 -17.640625 16.15625 -17.140625 C 17.070312 -16.648438 17.757812 -15.984375 18.21875 -15.140625 C 18.675781 -14.304688 18.90625 -13.394531 18.90625 -12.40625 Z M 13.046875 -12.171875 C 13.046875 -12.640625 12.890625 -13.03125 12.578125 -13.34375 C 12.265625 -13.65625 11.882812 -13.8125 11.4375 -13.8125 L 7.671875 -13.8125 L 7.671875 -10.5 L 11.4375 -10.5 C 11.882812 -10.5 12.265625 -10.660156 12.578125 -10.984375 C 12.890625 -11.304688 13.046875 -11.703125 13.046875 -12.171875 Z M 13.046875 -12.171875 "/></g></g></g><g fill="#ffffff" fill-opacity="1"><g transform="translate(261.864816, 120.470822)"><g><path d="M 2.1875 0 L 2.1875 -17.890625 L 7.9375 -17.890625 L 7.9375 0 Z M 2.1875 0 "/></g></g></g><g fill="#ffffff" fill-opacity="1"><g transform="translate(271.975785, 120.470822)"><g><path d="M 9.46875 -4.296875 L 17.96875 -4.296875 L 17.96875 0 L 0.625 0 L 0.625 -1.84375 L 8.921875 -13.59375 L 1.25 -13.59375 L 1.25 -17.890625 L 17.765625 -17.890625 L 17.765625 -16.046875 Z M 9.46875 -4.296875 "/></g></g></g><g fill="#ffffff" fill-opacity="1"><g transform="translate(290.742172, 120.470822)"><g><path d="M 10.8125 -18.203125 C 13.894531 -18.203125 16.273438 -17.410156 17.953125 -15.828125 C 19.640625 -14.253906 20.484375 -11.957031 20.484375 -8.9375 C 20.484375 -5.925781 19.640625 -3.628906 17.953125 -2.046875 C 16.273438 -0.472656 13.894531 0.3125 10.8125 0.3125 C 7.726562 0.3125 5.347656 -0.46875 3.671875 -2.03125 C 2.003906 -3.601562 1.171875 -5.90625 1.171875 -8.9375 C 1.171875 -11.976562 2.003906 -14.28125 3.671875 -15.84375 C 5.347656 -17.414062 7.726562 -18.203125 10.8125 -18.203125 Z M 10.8125 -13.90625 C 9.582031 -13.90625 8.644531 -13.53125 8 -12.78125 C 7.363281 -12.039062 7.046875 -11.039062 7.046875 -9.78125 L 7.046875 -8.109375 C 7.046875 -6.847656 7.363281 -5.84375 8 -5.09375 C 8.644531 -4.351562 9.582031 -3.984375 10.8125 -3.984375 C 12.039062 -3.984375 12.976562 -4.351562 13.625 -5.09375 C 14.28125 -5.84375 14.609375 -6.847656 14.609375 -8.109375 L 14.609375 -9.78125 C 14.609375 -11.039062 14.28125 -12.039062 13.625 -12.78125 C 12.976562 -13.53125 12.039062 -13.90625 10.8125 -13.90625 Z M 10.8125 -13.90625 "/></g></g></g><g fill="#ffffff" fill-opacity="1"><g transform="translate(312.393683, 120.470822)"><g><path d="M 14.71875 0 L 7.203125 -8.6875 L 7.203125 0 L 1.921875 0 L 1.921875 -17.890625 L 6.9375 -17.890625 L 14.453125 -9.078125 L 14.453125 -17.890625 L 19.734375 -17.890625 L 19.734375 0 Z M 14.71875 0 "/></g></g></g><g fill="#ffffff" fill-opacity="1"><g transform="translate(40.957033, 150.761093)"><g><path d="M 13.984375 0 L 13.984375 -6.78125 L 7.671875 -6.78125 L 7.671875 0 L 1.921875 0 L 1.921875 -17.890625 L 7.671875 -17.890625 L 7.671875 -11.359375 L 13.984375 -11.359375 L 13.984375 -17.890625 L 19.734375 -17.890625 L 19.734375 0 Z M 13.984375 0 "/></g></g></g><g fill="#ffffff" fill-opacity="1"><g transform="translate(62.608544, 150.761093)"><g><path d="M 1.921875 -17.890625 L 17.390625 -17.890625 L 17.390625 -13.59375 L 7.671875 -13.59375 L 7.671875 -11.125 L 15.984375 -11.125 L 15.984375 -7.015625 L 7.671875 -7.015625 L 7.671875 -4.296875 L 17.578125 -4.296875 L 17.578125 0 L 1.921875 0 Z M 1.921875 -17.890625 "/></g></g></g><g fill="#ffffff" fill-opacity="1"><g transform="translate(81.374919, 150.761093)"><g><path d="M 13.90625 0 L 13.15625 -2.515625 L 6.890625 -2.515625 L 6.140625 0 L 0.265625 0 L 6.78125 -17.890625 L 13.46875 -17.890625 L 20 0 Z M 8.09375 -6.53125 L 11.953125 -6.53125 L 10.09375 -12.890625 L 9.984375 -12.890625 Z M 8.09375 -6.53125 "/></g></g></g><g fill="#ffffff" fill-opacity="1"><g transform="translate(101.596856, 150.761093)"><g><path d="M 9.671875 -17.890625 C 15.929688 -17.890625 19.0625 -14.90625 19.0625 -8.9375 C 19.0625 -2.976562 15.929688 0 9.671875 0 L 1.921875 0 L 1.921875 -17.890625 Z M 7.671875 -4.296875 L 9.5625 -4.296875 C 11.976562 -4.296875 13.1875 -5.582031 13.1875 -8.15625 L 13.1875 -9.71875 C 13.1875 -12.300781 11.976562 -13.59375 9.5625 -13.59375 L 7.671875 -13.59375 Z M 7.671875 -4.296875 "/></g></g></g><g fill="#ffffff" fill-opacity="1"><g transform="translate(121.818794, 150.761093)"><g><path d="M 1.921875 -17.890625 L 7.671875 -17.890625 L 7.671875 -4.578125 L 16.84375 -4.578125 L 16.84375 0 L 1.921875 0 Z M 1.921875 -17.890625 "/></g></g></g><g fill="#ffffff" fill-opacity="1"><g transform="translate(139.155596, 150.761093)"><g><path d="M 2.1875 0 L 2.1875 -17.890625 L 7.9375 -17.890625 L 7.9375 0 Z M 2.1875 0 "/></g></g></g><g fill="#ffffff" fill-opacity="1"><g transform="translate(149.266565, 150.761093)"><g><path d="M 14.71875 0 L 7.203125 -8.6875 L 7.203125 0 L 1.921875 0 L 1.921875 -17.890625 L 6.9375 -17.890625 L 14.453125 -9.078125 L 14.453125 -17.890625 L 19.734375 -17.890625 L 19.734375 0 Z M 14.71875 0 "/></g></g></g><g fill="#ffffff" fill-opacity="1"><g transform="translate(170.918076, 150.761093)"><g><path d="M 1.921875 -17.890625 L 17.390625 -17.890625 L 17.390625 -13.59375 L 7.671875 -13.59375 L 7.671875 -11.125 L 15.984375 -11.125 L 15.984375 -7.015625 L 7.671875 -7.015625 L 7.671875 -4.296875 L 17.578125 -4.296875 L 17.578125 0 L 1.921875 0 Z M 1.921875 -17.890625 "/></g></g></g><g fill="#ffffff" fill-opacity="1"><g transform="translate(189.684451, 150.761093)"><g/></g></g><g fill="#ffffff" fill-opacity="1"><g transform="translate(198.339857, 150.761093)"><g><path d="M 13.984375 0 L 13.984375 -6.78125 L 7.671875 -6.78125 L 7.671875 0 L 1.921875 0 L 1.921875 -17.890625 L 7.671875 -17.890625 L 7.671875 -11.359375 L 13.984375 -11.359375 L 13.984375 -17.890625 L 19.734375 -17.890625 L 19.734375 0 Z M 13.984375 0 "/></g></g></g><g fill="#ffffff" fill-opacity="1"><g transform="translate(219.991368, 150.761093)"><g><path d="M 10.8125 -18.203125 C 13.894531 -18.203125 16.273438 -17.410156 17.953125 -15.828125 C 19.640625 -14.253906 20.484375 -11.957031 20.484375 -8.9375 C 20.484375 -5.925781 19.640625 -3.628906 17.953125 -2.046875 C 16.273438 -0.472656 13.894531 0.3125 10.8125 0.3125 C 7.726562 0.3125 5.347656 -0.46875 3.671875 -2.03125 C 2.003906 -3.601562 1.171875 -5.90625 1.171875 -8.9375 C 1.171875 -11.976562 2.003906 -14.28125 3.671875 -15.84375 C 5.347656 -17.414062 7.726562 -18.203125 10.8125 -18.203125 Z M 10.8125 -13.90625 C 9.582031 -13.90625 8.644531 -13.53125 8 -12.78125 C 7.363281 -12.039062 7.046875 -11.039062 7.046875 -9.78125 L 7.046875 -8.109375 C 7.046875 -6.847656 7.363281 -5.84375 8 -5.09375 C 8.644531 -4.351562 9.582031 -3.984375 10.8125 -3.984375 C 12.039062 -3.984375 12.976562 -4.351562 13.625 -5.09375 C 14.28125 -5.84375 14.609375 -6.847656 14.609375 -8.109375 L 14.609375 -9.78125 C 14.609375 -11.039062 14.28125 -12.039062 13.625 -12.78125 C 12.976562 -13.53125 12.039062 -13.90625 10.8125 -13.90625 Z M 10.8125 -13.90625 "/></g></g></g><g fill="#ffffff" fill-opacity="1"><g transform="translate(241.642879, 150.761093)"><g><path d="M 18.90625 -12.40625 C 18.90625 -11.3125 18.609375 -10.320312 18.015625 -9.4375 C 17.429688 -8.550781 16.570312 -7.898438 15.4375 -7.484375 L 19.421875 0 L 12.96875 0 L 9.796875 -6.53125 L 7.671875 -6.53125 L 7.671875 0 L 1.921875 0 L 1.921875 -17.890625 L 12.875 -17.890625 C 14.15625 -17.890625 15.25 -17.640625 16.15625 -17.140625 C 17.070312 -16.648438 17.757812 -15.984375 18.21875 -15.140625 C 18.675781 -14.304688 18.90625 -13.394531 18.90625 -12.40625 Z M 13.046875 -12.171875 C 13.046875 -12.640625 12.890625 -13.03125 12.578125 -13.34375 C 12.265625 -13.65625 11.882812 -13.8125 11.4375 -13.8125 L 7.671875 -13.8125 L 7.671875 -10.5 L 11.4375 -10.5 C 11.882812 -10.5 12.265625 -10.660156 12.578125 -10.984375 C 12.890625 -11.304688 13.046875 -11.703125 13.046875 -12.171875 Z M 13.046875 -12.171875 "/></g></g></g><g fill="#ffffff" fill-opacity="1"><g transform="translate(261.864816, 150.761093)"><g><path d="M 2.1875 0 L 2.1875 -17.890625 L 7.9375 -17.890625 L 7.9375 0 Z M 2.1875 0 "/></g></g></g><g fill="#ffffff" fill-opacity="1"><g transform="translate(271.975785, 150.761093)"><g><path d="M 9.46875 -4.296875 L 17.96875 -4.296875 L 17.96875 0 L 0.625 0 L 0.625 -1.84375 L 8.921875 -13.59375 L 1.25 -13.59375 L 1.25 -17.890625 L 17.765625 -17.890625 L 17.765625 -16.046875 Z M 9.46875 -4.296875 "/></g></g></g><g fill="#ffffff" fill-opacity="1"><g transform="translate(290.742172, 150.761093)"><g><path d="M 10.8125 -18.203125 C 13.894531 -18.203125 16.273438 -17.410156 17.953125 -15.828125 C 19.640625 -14.253906 20.484375 -11.957031 20.484375 -8.9375 C 20.484375 -5.925781 19.640625 -3.628906 17.953125 -2.046875 C 16.273438 -0.472656 13.894531 0.3125 10.8125 0.3125 C 7.726562 0.3125 5.347656 -0.46875 3.671875 -2.03125 C 2.003906 -3.601562 1.171875 -5.90625 1.171875 -8.9375 C 1.171875 -11.976562 2.003906 -14.28125 3.671875 -15.84375 C 5.347656 -17.414062 7.726562 -18.203125 10.8125 -18.203125 Z M 10.8125 -13.90625 C 9.582031 -13.90625 8.644531 -13.53125 8 -12.78125 C 7.363281 -12.039062 7.046875 -11.039062 7.046875 -9.78125 L 7.046875 -8.109375 C 7.046875 -6.847656 7.363281 -5.84375 8 -5.09375 C 8.644531 -4.351562 9.582031 -3.984375 10.8125 -3.984375 C 12.039062 -3.984375 12.976562 -4.351562 13.625 -5.09375 C 14.28125 -5.84375 14.609375 -6.847656 14.609375 -8.109375 L 14.609375 -9.78125 C 14.609375 -11.039062 14.28125 -12.039062 13.625 -12.78125 C 12.976562 -13.53125 12.039062 -13.90625 10.8125 -13.90625 Z M 10.8125 -13.90625 "/></g></g></g><g fill="#ffffff" fill-opacity="1"><g transform="translate(312.393683, 150.761093)"><g><path d="M 14.71875 0 L 7.203125 -8.6875 L 7.203125 0 L 1.921875 0 L 1.921875 -17.890625 L 6.9375 -17.890625 L 14.453125 -9.078125 L 14.453125 -17.890625 L 19.734375 -17.890625 L 19.734375 0 Z M 14.71875 0 "/></g></g></g><g fill="#ffffff" fill-opacity="1"><g transform="translate(40.957033, 181.051351)"><g><path d="M 13.984375 0 L 13.984375 -6.78125 L 7.671875 -6.78125 L 7.671875 0 L 1.921875 0 L 1.921875 -17.890625 L 7.671875 -17.890625 L 7.671875 -11.359375 L 13.984375 -11.359375 L 13.984375 -17.890625 L 19.734375 -17.890625 L 19.734375 0 Z M 13.984375 0 "/></g></g></g><g fill="#ffffff" fill-opacity="1"><g transform="translate(62.608544, 181.051351)"><g><path d="M 1.921875 -17.890625 L 17.390625 -17.890625 L 17.390625 -13.59375 L 7.671875 -13.59375 L 7.671875 -11.125 L 15.984375 -11.125 L 15.984375 -7.015625 L 7.671875 -7.015625 L 7.671875 -4.296875 L 17.578125 -4.296875 L 17.578125 0 L 1.921875 0 Z M 1.921875 -17.890625 "/></g></g></g><g fill="#ffffff" fill-opacity="1"><g transform="translate(81.374919, 181.051351)"><g><path d="M 13.90625 0 L 13.15625 -2.515625 L 6.890625 -2.515625 L 6.140625 0 L 0.265625 0 L 6.78125 -17.890625 L 13.46875 -17.890625 L 20 0 Z M 8.09375 -6.53125 L 11.953125 -6.53125 L 10.09375 -12.890625 L 9.984375 -12.890625 Z M 8.09375 -6.53125 "/></g></g></g><g fill="#ffffff" fill-opacity="1"><g transform="translate(101.596856, 181.051351)"><g><path d="M 9.671875 -17.890625 C 15.929688 -17.890625 19.0625 -14.90625 19.0625 -8.9375 C 19.0625 -2.976562 15.929688 0 9.671875 0 L 1.921875 0 L 1.921875 -17.890625 Z M 7.671875 -4.296875 L 9.5625 -4.296875 C 11.976562 -4.296875 13.1875 -5.582031 13.1875 -8.15625 L 13.1875 -9.71875 C 13.1875 -12.300781 11.976562 -13.59375 9.5625 -13.59375 L 7.671875 -13.59375 Z M 7.671875 -4.296875 "/></g></g></g><g fill="#ffffff" fill-opacity="1"><g transform="translate(121.818794, 181.051351)"><g><path d="M 1.921875 -17.890625 L 7.671875 -17.890625 L 7.671875 -4.578125 L 16.84375 -4.578125 L 16.84375 0 L 1.921875 0 Z M 1.921875 -17.890625 "/></g></g></g><g fill="#ffffff" fill-opacity="1"><g transform="translate(139.155596, 181.051351)"><g><path d="M 2.1875 0 L 2.1875 -17.890625 L 7.9375 -17.890625 L 7.9375 0 Z M 2.1875 0 "/></g></g></g><g fill="#ffffff" fill-opacity="1"><g transform="translate(149.266565, 181.051351)"><g><path d="M 14.71875 0 L 7.203125 -8.6875 L 7.203125 0 L 1.921875 0 L 1.921875 -17.890625 L 6.9375 -17.890625 L 14.453125 -9.078125 L 14.453125 -17.890625 L 19.734375 -17.890625 L 19.734375 0 Z M 14.71875 0 "/></g></g></g><g fill="#ffffff" fill-opacity="1"><g transform="translate(170.918076, 181.051351)"><g><path d="M 1.921875 -17.890625 L 17.390625 -17.890625 L 17.390625 -13.59375 L 7.671875 -13.59375 L 7.671875 -11.125 L 15.984375 -11.125 L 15.984375 -7.015625 L 7.671875 -7.015625 L 7.671875 -4.296875 L 17.578125 -4.296875 L 17.578125 0 L 1.921875 0 Z M 1.921875 -17.890625 "/></g></g></g><g fill="#ffffff" fill-opacity="1"><g transform="translate(189.684451, 181.051351)"><g/></g></g><g fill="#ffffff" fill-opacity="1"><g transform="translate(198.339857, 181.051351)"><g><path d="M 13.984375 0 L 13.984375 -6.78125 L 7.671875 -6.78125 L 7.671875 0 L 1.921875 0 L 1.921875 -17.890625 L 7.671875 -17.890625 L 7.671875 -11.359375 L 13.984375 -11.359375 L 13.984375 -17.890625 L 19.734375 -17.890625 L 19.734375 0 Z M 13.984375 0 "/></g></g></g><g fill="#ffffff" fill-opacity="1"><g transform="translate(219.991368, 181.051351)"><g><path d="M 10.8125 -18.203125 C 13.894531 -18.203125 16.273438 -17.410156 17.953125 -15.828125 C 19.640625 -14.253906 20.484375 -11.957031 20.484375 -8.9375 C 20.484375 -5.925781 19.640625 -3.628906 17.953125 -2.046875 C 16.273438 -0.472656 13.894531 0.3125 10.8125 0.3125 C 7.726562 0.3125 5.347656 -0.46875 3.671875 -2.03125 C 2.003906 -3.601562 1.171875 -5.90625 1.171875 -8.9375 C 1.171875 -11.976562 2.003906 -14.28125 3.671875 -15.84375 C 5.347656 -17.414062 7.726562 -18.203125 10.8125 -18.203125 Z M 10.8125 -13.90625 C 9.582031 -13.90625 8.644531 -13.53125 8 -12.78125 C 7.363281 -12.039062 7.046875 -11.039062 7.046875 -9.78125 L 7.046875 -8.109375 C 7.046875 -6.847656 7.363281 -5.84375 8 -5.09375 C 8.644531 -4.351562 9.582031 -3.984375 10.8125 -3.984375 C 12.039062 -3.984375 12.976562 -4.351562 13.625 -5.09375 C 14.28125 -5.84375 14.609375 -6.847656 14.609375 -8.109375 L 14.609375 -9.78125 C 14.609375 -11.039062 14.28125 -12.039062 13.625 -12.78125 C 12.976562 -13.53125 12.039062 -13.90625 10.8125 -13.90625 Z M 10.8125 -13.90625 "/></g></g></g><g fill="#ffffff" fill-opacity="1"><g transform="translate(241.642879, 181.051351)"><g><path d="M 18.90625 -12.40625 C 18.90625 -11.3125 18.609375 -10.320312 18.015625 -9.4375 C 17.429688 -8.550781 16.570312 -7.898438 15.4375 -7.484375 L 19.421875 0 L 12.96875 0 L 9.796875 -6.53125 L 7.671875 -6.53125 L 7.671875 0 L 1.921875 0 L 1.921875 -17.890625 L 12.875 -17.890625 C 14.15625 -17.890625 15.25 -17.640625 16.15625 -17.140625 C 17.070312 -16.648438 17.757812 -15.984375 18.21875 -15.140625 C 18.675781 -14.304688 18.90625 -13.394531 18.90625 -12.40625 Z M 13.046875 -12.171875 C 13.046875 -12.640625 12.890625 -13.03125 12.578125 -13.34375 C 12.265625 -13.65625 11.882812 -13.8125 11.4375 -13.8125 L 7.671875 -13.8125 L 7.671875 -10.5 L 11.4375 -10.5 C 11.882812 -10.5 12.265625 -10.660156 12.578125 -10.984375 C 12.890625 -11.304688 13.046875 -11.703125 13.046875 -12.171875 Z M 13.046875 -12.171875 "/></g></g></g><g fill="#ffffff" fill-opacity="1"><g transform="translate(261.864816, 181.051351)"><g><path d="M 2.1875 0 L 2.1875 -17.890625 L 7.9375 -17.890625 L 7.9375 0 Z M 2.1875 0 "/></g></g></g><g fill="#ffffff" fill-opacity="1"><g transform="translate(271.975785, 181.051351)"><g><path d="M 9.46875 -4.296875 L 17.96875 -4.296875 L 17.96875 0 L 0.625 0 L 0.625 -1.84375 L 8.921875 -13.59375 L 1.25 -13.59375 L 1.25 -17.890625 L 17.765625 -17.890625 L 17.765625 -16.046875 Z M 9.46875 -4.296875 "/></g></g></g><g fill="#ffffff" fill-opacity="1"><g transform="translate(290.742172, 181.051351)"><g><path d="M 10.8125 -18.203125 C 13.894531 -18.203125 16.273438 -17.410156 17.953125 -15.828125 C 19.640625 -14.253906 20.484375 -11.957031 20.484375 -8.9375 C 20.484375 -5.925781 19.640625 -3.628906 17.953125 -2.046875 C 16.273438 -0.472656 13.894531 0.3125 10.8125 0.3125 C 7.726562 0.3125 5.347656 -0.46875 3.671875 -2.03125 C 2.003906 -3.601562 1.171875 -5.90625 1.171875 -8.9375 C 1.171875 -11.976562 2.003906 -14.28125 3.671875 -15.84375 C 5.347656 -17.414062 7.726562 -18.203125 10.8125 -18.203125 Z M 10.8125 -13.90625 C 9.582031 -13.90625 8.644531 -13.53125 8 -12.78125 C 7.363281 -12.039062 7.046875 -11.039062 7.046875 -9.78125 L 7.046875 -8.109375 C 7.046875 -6.847656 7.363281 -5.84375 8 -5.09375 C 8.644531 -4.351562 9.582031 -3.984375 10.8125 -3.984375 C 12.039062 -3.984375 12.976562 -4.351562 13.625 -5.09375 C 14.28125 -5.84375 14.609375 -6.847656 14.609375 -8.109375 L 14.609375 -9.78125 C 14.609375 -11.039062 14.28125 -12.039062 13.625 -12.78125 C 12.976562 -13.53125 12.039062 -13.90625 10.8125 -13.90625 Z M 10.8125 -13.90625 "/></g></g></g><g fill="#ffffff" fill-opacity="1"><g transform="translate(312.393683, 181.051351)"><g><path d="M 14.71875 0 L 7.203125 -8.6875 L 7.203125 0 L 1.921875 0 L 1.921875 -17.890625 L 6.9375 -17.890625 L 14.453125 -9.078125 L 14.453125 -17.890625 L 19.734375 -17.890625 L 19.734375 0 Z M 14.71875 0 "/></g></g></g><g fill="#ffffff" fill-opacity="1"><g transform="translate(40.957033, 211.051349)"><g><path d="M 13.984375 0 L 13.984375 -6.78125 L 7.671875 -6.78125 L 7.671875 0 L 1.921875 0 L 1.921875 -17.890625 L 7.671875 -17.890625 L 7.671875 -11.359375 L 13.984375 -11.359375 L 13.984375 -17.890625 L 19.734375 -17.890625 L 19.734375 0 Z M 13.984375 0 "/></g></g></g><g fill="#ffffff" fill-opacity="1"><g transform="translate(62.608544, 211.051349)"><g><path d="M 1.921875 -17.890625 L 17.390625 -17.890625 L 17.390625 -13.59375 L 7.671875 -13.59375 L 7.671875 -11.125 L 15.984375 -11.125 L 15.984375 -7.015625 L 7.671875 -7.015625 L 7.671875 -4.296875 L 17.578125 -4.296875 L 17.578125 0 L 1.921875 0 Z M 1.921875 -17.890625 "/></g></g></g><g fill="#ffffff" fill-opacity="1"><g transform="translate(81.374919, 211.051349)"><g><path d="M 13.90625 0 L 13.15625 -2.515625 L 6.890625 -2.515625 L 6.140625 0 L 0.265625 0 L 6.78125 -17.890625 L 13.46875 -17.890625 L 20 0 Z M 8.09375 -6.53125 L 11.953125 -6.53125 L 10.09375 -12.890625 L 9.984375 -12.890625 Z M 8.09375 -6.53125 "/></g></g></g><g fill="#ffffff" fill-opacity="1"><g transform="translate(101.596856, 211.051349)"><g><path d="M 9.671875 -17.890625 C 15.929688 -17.890625 19.0625 -14.90625 19.0625 -8.9375 C 19.0625 -2.976562 15.929688 0 9.671875 0 L 1.921875 0 L 1.921875 -17.890625 Z M 7.671875 -4.296875 L 9.5625 -4.296875 C 11.976562 -4.296875 13.1875 -5.582031 13.1875 -8.15625 L 13.1875 -9.71875 C 13.1875 -12.300781 11.976562 -13.59375 9.5625 -13.59375 L 7.671875 -13.59375 Z M 7.671875 -4.296875 "/></g></g></g><g fill="#ffffff" fill-opacity="1"><g transform="translate(121.818794, 211.051349)"><g><path d="M 1.921875 -17.890625 L 7.671875 -17.890625 L 7.671875 -4.578125 L 16.84375 -4.578125 L 16.84375 0 L 1.921875 0 Z M 1.921875 -17.890625 "/></g></g></g><g fill="#ffffff" fill-opacity="1"><g transform="translate(139.155596, 211.051349)"><g><path d="M 2.1875 0 L 2.1875 -17.890625 L 7.9375 -17.890625 L 7.9375 0 Z M 2.1875 0 "/></g></g></g><g fill="#ffffff" fill-opacity="1"><g transform="translate(149.266565, 211.051349)"><g><path d="M 14.71875 0 L 7.203125 -8.6875 L 7.203125 0 L 1.921875 0 L 1.921875 -17.890625 L 6.9375 -17.890625 L 14.453125 -9.078125 L 14.453125 -17.890625 L 19.734375 -17.890625 L 19.734375 0 Z M 14.71875 0 "/></g></g></g><g fill="#ffffff" fill-opacity="1"><g transform="translate(170.918076, 211.051349)"><g><path d="M 1.921875 -17.890625 L 17.390625 -17.890625 L 17.390625 -13.59375 L 7.671875 -13.59375 L 7.671875 -11.125 L 15.984375 -11.125 L 15.984375 -7.015625 L 7.671875 -7.015625 L 7.671875 -4.296875 L 17.578125 -4.296875 L 17.578125 0 L 1.921875 0 Z M 1.921875 -17.890625 "/></g></g></g><g fill="#ffffff" fill-opacity="1"><g transform="translate(189.684451, 211.051349)"><g/></g></g><g fill="#ffffff" fill-opacity="1"><g transform="translate(198.339857, 211.051349)"><g><path d="M 13.984375 0 L 13.984375 -6.78125 L 7.671875 -6.78125 L 7.671875 0 L 1.921875 0 L 1.921875 -17.890625 L 7.671875 -17.890625 L 7.671875 -11.359375 L 13.984375 -11.359375 L 13.984375 -17.890625 L 19.734375 -17.890625 L 19.734375 0 Z M 13.984375 0 "/></g></g></g><g fill="#ffffff" fill-opacity="1"><g transform="translate(219.991368, 211.051349)"><g><path d="M 10.8125 -18.203125 C 13.894531 -18.203125 16.273438 -17.410156 17.953125 -15.828125 C 19.640625 -14.253906 20.484375 -11.957031 20.484375 -8.9375 C 20.484375 -5.925781 19.640625 -3.628906 17.953125 -2.046875 C 16.273438 -0.472656 13.894531 0.3125 10.8125 0.3125 C 7.726562 0.3125 5.347656 -0.46875 3.671875 -2.03125 C 2.003906 -3.601562 1.171875 -5.90625 1.171875 -8.9375 C 1.171875 -11.976562 2.003906 -14.28125 3.671875 -15.84375 C 5.347656 -17.414062 7.726562 -18.203125 10.8125 -18.203125 Z M 10.8125 -13.90625 C 9.582031 -13.90625 8.644531 -13.53125 8 -12.78125 C 7.363281 -12.039062 7.046875 -11.039062 7.046875 -9.78125 L 7.046875 -8.109375 C 7.046875 -6.847656 7.363281 -5.84375 8 -5.09375 C 8.644531 -4.351562 9.582031 -3.984375 10.8125 -3.984375 C 12.039062 -3.984375 12.976562 -4.351562 13.625 -5.09375 C 14.28125 -5.84375 14.609375 -6.847656 14.609375 -8.109375 L 14.609375 -9.78125 C 14.609375 -11.039062 14.28125 -12.039062 13.625 -12.78125 C 12.976562 -13.53125 12.039062 -13.90625 10.8125 -13.90625 Z M 10.8125 -13.90625 "/></g></g></g><g fill="#ffffff" fill-opacity="1"><g transform="translate(241.642879, 211.051349)"><g><path d="M 18.90625 -12.40625 C 18.90625 -11.3125 18.609375 -10.320312 18.015625 -9.4375 C 17.429688 -8.550781 16.570312 -7.898438 15.4375 -7.484375 L 19.421875 0 L 12.96875 0 L 9.796875 -6.53125 L 7.671875 -6.53125 L 7.671875 0 L 1.921875 0 L 1.921875 -17.890625 L 12.875 -17.890625 C 14.15625 -17.890625 15.25 -17.640625 16.15625 -17.140625 C 17.070312 -16.648438 17.757812 -15.984375 18.21875 -15.140625 C 18.675781 -14.304688 18.90625 -13.394531 18.90625 -12.40625 Z M 13.046875 -12.171875 C 13.046875 -12.640625 12.890625 -13.03125 12.578125 -13.34375 C 12.265625 -13.65625 11.882812 -13.8125 11.4375 -13.8125 L 7.671875 -13.8125 L 7.671875 -10.5 L 11.4375 -10.5 C 11.882812 -10.5 12.265625 -10.660156 12.578125 -10.984375 C 12.890625 -11.304688 13.046875 -11.703125 13.046875 -12.171875 Z M 13.046875 -12.171875 "/></g></g></g><g fill="#ffffff" fill-opacity="1"><g transform="translate(261.864816, 211.051349)"><g><path d="M 2.1875 0 L 2.1875 -17.890625 L 7.9375 -17.890625 L 7.9375 0 Z M 2.1875 0 "/></g></g></g><g fill="#ffffff" fill-opacity="1"><g transform="translate(271.975785, 211.051349)"><g><path d="M 9.46875 -4.296875 L 17.96875 -4.296875 L 17.96875 0 L 0.625 0 L 0.625 -1.84375 L 8.921875 -13.59375 L 1.25 -13.59375 L 1.25 -17.890625 L 17.765625 -17.890625 L 17.765625 -16.046875 Z M 9.46875 -4.296875 "/></g></g></g><g fill="#ffffff" fill-opacity="1"><g transform="translate(290.742172, 211.051349)"><g><path d="M 10.8125 -18.203125 C 13.894531 -18.203125 16.273438 -17.410156 17.953125 -15.828125 C 19.640625 -14.253906 20.484375 -11.957031 20.484375 -8.9375 C 20.484375 -5.925781 19.640625 -3.628906 17.953125 -2.046875 C 16.273438 -0.472656 13.894531 0.3125 10.8125 0.3125 C 7.726562 0.3125 5.347656 -0.46875 3.671875 -2.03125 C 2.003906 -3.601562 1.171875 -5.90625 1.171875 -8.9375 C 1.171875 -11.976562 2.003906 -14.28125 3.671875 -15.84375 C 5.347656 -17.414062 7.726562 -18.203125 10.8125 -18.203125 Z M 10.8125 -13.90625 C 9.582031 -13.90625 8.644531 -13.53125 8 -12.78125 C 7.363281 -12.039062 7.046875 -11.039062 7.046875 -9.78125 L 7.046875 -8.109375 C 7.046875 -6.847656 7.363281 -5.84375 8 -5.09375 C 8.644531 -4.351562 9.582031 -3.984375 10.8125 -3.984375 C 12.039062 -3.984375 12.976562 -4.351562 13.625 -5.09375 C 14.28125 -5.84375 14.609375 -6.847656 14.609375 -8.109375 L 14.609375 -9.78125 C 14.609375 -11.039062 14.28125 -12.039062 13.625 -12.78125 C 12.976562 -13.53125 12.039062 -13.90625 10.8125 -13.90625 Z M 10.8125 -13.90625 "/></g></g></g><g fill="#ffffff" fill-opacity="1"><g transform="translate(312.393683, 211.051349)"><g><path d="M 14.71875 0 L 7.203125 -8.6875 L 7.203125 0 L 1.921875 0 L 1.921875 -17.890625 L 6.9375 -17.890625 L 14.453125 -9.078125 L 14.453125 -17.890625 L 19.734375 -17.890625 L 19.734375 0 Z M 14.71875 0 "/></g></g></g><g fill="#ffffff" fill-opacity="1"><g transform="translate(40.957033, 241.101342)"><g><path d="M 13.984375 0 L 13.984375 -6.78125 L 7.671875 -6.78125 L 7.671875 0 L 1.921875 0 L 1.921875 -17.890625 L 7.671875 -17.890625 L 7.671875 -11.359375 L 13.984375 -11.359375 L 13.984375 -17.890625 L 19.734375 -17.890625 L 19.734375 0 Z M 13.984375 0 "/></g></g></g><g fill="#ffffff" fill-opacity="1"><g transform="translate(62.608544, 241.101342)"><g><path d="M 1.921875 -17.890625 L 17.390625 -17.890625 L 17.390625 -13.59375 L 7.671875 -13.59375 L 7.671875 -11.125 L 15.984375 -11.125 L 15.984375 -7.015625 L 7.671875 -7.015625 L 7.671875 -4.296875 L 17.578125 -4.296875 L 17.578125 0 L 1.921875 0 Z M 1.921875 -17.890625 "/></g></g></g><g fill="#ffffff" fill-opacity="1"><g transform="translate(81.374919, 241.101342)"><g><path d="M 13.90625 0 L 13.15625 -2.515625 L 6.890625 -2.515625 L 6.140625 0 L 0.265625 0 L 6.78125 -17.890625 L 13.46875 -17.890625 L 20 0 Z M 8.09375 -6.53125 L 11.953125 -6.53125 L 10.09375 -12.890625 L 9.984375 -12.890625 Z M 8.09375 -6.53125 "/></g></g></g><g fill="#ffffff" fill-opacity="1"><g transform="translate(101.596856, 241.101342)"><g><path d="M 9.671875 -17.890625 C 15.929688 -17.890625 19.0625 -14.90625 19.0625 -8.9375 C 19.0625 -2.976562 15.929688 0 9.671875 0 L 1.921875 0 L 1.921875 -17.890625 Z M 7.671875 -4.296875 L 9.5625 -4.296875 C 11.976562 -4.296875 13.1875 -5.582031 13.1875 -8.15625 L 13.1875 -9.71875 C 13.1875 -12.300781 11.976562 -13.59375 9.5625 -13.59375 L 7.671875 -13.59375 Z M 7.671875 -4.296875 "/></g></g></g><g fill="#ffffff" fill-opacity="1"><g transform="translate(121.818794, 241.101342)"><g><path d="M 1.921875 -17.890625 L 7.671875 -17.890625 L 7.671875 -4.578125 L 16.84375 -4.578125 L 16.84375 0 L 1.921875 0 Z M 1.921875 -17.890625 "/></g></g></g><g fill="#ffffff" fill-opacity="1"><g transform="translate(139.155596, 241.101342)"><g><path d="M 2.1875 0 L 2.1875 -17.890625 L 7.9375 -17.890625 L 7.9375 0 Z M 2.1875 0 "/></g></g></g><g fill="#ffffff" fill-opacity="1"><g transform="translate(149.266565, 241.101342)"><g><path d="M 14.71875 0 L 7.203125 -8.6875 L 7.203125 0 L 1.921875 0 L 1.921875 -17.890625 L 6.9375 -17.890625 L 14.453125 -9.078125 L 14.453125 -17.890625 L 19.734375 -17.890625 L 19.734375 0 Z M 14.71875 0 "/></g></g></g><g fill="#ffffff" fill-opacity="1"><g transform="translate(170.918076, 241.101342)"><g><path d="M 1.921875 -17.890625 L 17.390625 -17.890625 L 17.390625 -13.59375 L 7.671875 -13.59375 L 7.671875 -11.125 L 15.984375 -11.125 L 15.984375 -7.015625 L 7.671875 -7.015625 L 7.671875 -4.296875 L 17.578125 -4.296875 L 17.578125 0 L 1.921875 0 Z M 1.921875 -17.890625 "/></g></g></g><g fill="#ffffff" fill-opacity="1"><g transform="translate(189.684451, 241.101342)"><g/></g></g><g fill="#ffffff" fill-opacity="1"><g transform="translate(198.339857, 241.101342)"><g><path d="M 13.984375 0 L 13.984375 -6.78125 L 7.671875 -6.78125 L 7.671875 0 L 1.921875 0 L 1.921875 -17.890625 L 7.671875 -17.890625 L 7.671875 -11.359375 L 13.984375 -11.359375 L 13.984375 -17.890625 L 19.734375 -17.890625 L 19.734375 0 Z M 13.984375 0 "/></g></g></g><g fill="#ffffff" fill-opacity="1"><g transform="translate(219.991368, 241.101342)"><g><path d="M 10.8125 -18.203125 C 13.894531 -18.203125 16.273438 -17.410156 17.953125 -15.828125 C 19.640625 -14.253906 20.484375 -11.957031 20.484375 -8.9375 C 20.484375 -5.925781 19.640625 -3.628906 17.953125 -2.046875 C 16.273438 -0.472656 13.894531 0.3125 10.8125 0.3125 C 7.726562 0.3125 5.347656 -0.46875 3.671875 -2.03125 C 2.003906 -3.601562 1.171875 -5.90625 1.171875 -8.9375 C 1.171875 -11.976562 2.003906 -14.28125 3.671875 -15.84375 C 5.347656 -17.414062 7.726562 -18.203125 10.8125 -18.203125 Z M 10.8125 -13.90625 C 9.582031 -13.90625 8.644531 -13.53125 8 -12.78125 C 7.363281 -12.039062 7.046875 -11.039062 7.046875 -9.78125 L 7.046875 -8.109375 C 7.046875 -6.847656 7.363281 -5.84375 8 -5.09375 C 8.644531 -4.351562 9.582031 -3.984375 10.8125 -3.984375 C 12.039062 -3.984375 12.976562 -4.351562 13.625 -5.09375 C 14.28125 -5.84375 14.609375 -6.847656 14.609375 -8.109375 L 14.609375 -9.78125 C 14.609375 -11.039062 14.28125 -12.039062 13.625 -12.78125 C 12.976562 -13.53125 12.039062 -13.90625 10.8125 -13.90625 Z M 10.8125 -13.90625 "/></g></g></g><g fill="#ffffff" fill-opacity="1"><g transform="translate(241.642879, 241.101342)"><g><path d="M 18.90625 -12.40625 C 18.90625 -11.3125 18.609375 -10.320312 18.015625 -9.4375 C 17.429688 -8.550781 16.570312 -7.898438 15.4375 -7.484375 L 19.421875 0 L 12.96875 0 L 9.796875 -6.53125 L 7.671875 -6.53125 L 7.671875 0 L 1.921875 0 L 1.921875 -17.890625 L 12.875 -17.890625 C 14.15625 -17.890625 15.25 -17.640625 16.15625 -17.140625 C 17.070312 -16.648438 17.757812 -15.984375 18.21875 -15.140625 C 18.675781 -14.304688 18.90625 -13.394531 18.90625 -12.40625 Z M 13.046875 -12.171875 C 13.046875 -12.640625 12.890625 -13.03125 12.578125 -13.34375 C 12.265625 -13.65625 11.882812 -13.8125 11.4375 -13.8125 L 7.671875 -13.8125 L 7.671875 -10.5 L 11.4375 -10.5 C 11.882812 -10.5 12.265625 -10.660156 12.578125 -10.984375 C 12.890625 -11.304688 13.046875 -11.703125 13.046875 -12.171875 Z M 13.046875 -12.171875 "/></g></g></g><g fill="#ffffff" fill-opacity="1"><g transform="translate(261.864816, 241.101342)"><g><path d="M 2.1875 0 L 2.1875 -17.890625 L 7.9375 -17.890625 L 7.9375 0 Z M 2.1875 0 "/></g></g></g><g fill="#ffffff" fill-opacity="1"><g transform="translate(271.975785, 241.101342)"><g><path d="M 9.46875 -4.296875 L 17.96875 -4.296875 L 17.96875 0 L 0.625 0 L 0.625 -1.84375 L 8.921875 -13.59375 L 1.25 -13.59375 L 1.25 -17.890625 L 17.765625 -17.890625 L 17.765625 -16.046875 Z M 9.46875 -4.296875 "/></g></g></g><g fill="#ffffff" fill-opacity="1"><g transform="translate(290.742172, 241.101342)"><g><path d="M 10.8125 -18.203125 C 13.894531 -18.203125 16.273438 -17.410156 17.953125 -15.828125 C 19.640625 -14.253906 20.484375 -11.957031 20.484375 -8.9375 C 20.484375 -5.925781 19.640625 -3.628906 17.953125 -2.046875 C 16.273438 -0.472656 13.894531 0.3125 10.8125 0.3125 C 7.726562 0.3125 5.347656 -0.46875 3.671875 -2.03125 C 2.003906 -3.601562 1.171875 -5.90625 1.171875 -8.9375 C 1.171875 -11.976562 2.003906 -14.28125 3.671875 -15.84375 C 5.347656 -17.414062 7.726562 -18.203125 10.8125 -18.203125 Z M 10.8125 -13.90625 C 9.582031 -13.90625 8.644531 -13.53125 8 -12.78125 C 7.363281 -12.039062 7.046875 -11.039062 7.046875 -9.78125 L 7.046875 -8.109375 C 7.046875 -6.847656 7.363281 -5.84375 8 -5.09375 C 8.644531 -4.351562 9.582031 -3.984375 10.8125 -3.984375 C 12.039062 -3.984375 12.976562 -4.351562 13.625 -5.09375 C 14.28125 -5.84375 14.609375 -6.847656 14.609375 -8.109375 L 14.609375 -9.78125 C 14.609375 -11.039062 14.28125 -12.039062 13.625 -12.78125 C 12.976562 -13.53125 12.039062 -13.90625 10.8125 -13.90625 Z M 10.8125 -13.90625 "/></g></g></g><g fill="#ffffff" fill-opacity="1"><g transform="translate(312.393683, 241.101342)"><g><path d="M 14.71875 0 L 7.203125 -8.6875 L 7.203125 0 L 1.921875 0 L 1.921875 -17.890625 L 6.9375 -17.890625 L 14.453125 -9.078125 L 14.453125 -17.890625 L 19.734375 -17.890625 L 19.734375 0 Z M 14.71875 0 "/></g></g></g><g fill="#ffffff" fill-opacity="1"><g transform="translate(40.957033, 271.341633)"><g><path d="M 13.984375 0 L 13.984375 -6.78125 L 7.671875 -6.78125 L 7.671875 0 L 1.921875 0 L 1.921875 -17.890625 L 7.671875 -17.890625 L 7.671875 -11.359375 L 13.984375 -11.359375 L 13.984375 -17.890625 L 19.734375 -17.890625 L 19.734375 0 Z M 13.984375 0 "/></g></g></g><g fill="#ffffff" fill-opacity="1"><g transform="translate(62.608544, 271.341633)"><g><path d="M 1.921875 -17.890625 L 17.390625 -17.890625 L 17.390625 -13.59375 L 7.671875 -13.59375 L 7.671875 -11.125 L 15.984375 -11.125 L 15.984375 -7.015625 L 7.671875 -7.015625 L 7.671875 -4.296875 L 17.578125 -4.296875 L 17.578125 0 L 1.921875 0 Z M 1.921875 -17.890625 "/></g></g></g><g fill="#ffffff" fill-opacity="1"><g transform="translate(81.374919, 271.341633)"><g><path d="M 13.90625 0 L 13.15625 -2.515625 L 6.890625 -2.515625 L 6.140625 0 L 0.265625 0 L 6.78125 -17.890625 L 13.46875 -17.890625 L 20 0 Z M 8.09375 -6.53125 L 11.953125 -6.53125 L 10.09375 -12.890625 L 9.984375 -12.890625 Z M 8.09375 -6.53125 "/></g></g></g><g fill="#ffffff" fill-opacity="1"><g transform="translate(101.596856, 271.341633)"><g><path d="M 9.671875 -17.890625 C 15.929688 -17.890625 19.0625 -14.90625 19.0625 -8.9375 C 19.0625 -2.976562 15.929688 0 9.671875 0 L 1.921875 0 L 1.921875 -17.890625 Z M 7.671875 -4.296875 L 9.5625 -4.296875 C 11.976562 -4.296875 13.1875 -5.582031 13.1875 -8.15625 L 13.1875 -9.71875 C 13.1875 -12.300781 11.976562 -13.59375 9.5625 -13.59375 L 7.671875 -13.59375 Z M 7.671875 -4.296875 "/></g></g></g><g fill="#ffffff" fill-opacity="1"><g transform="translate(121.818794, 271.341633)"><g><path d="M 1.921875 -17.890625 L 7.671875 -17.890625 L 7.671875 -4.578125 L 16.84375 -4.578125 L 16.84375 0 L 1.921875 0 Z M 1.921875 -17.890625 "/></g></g></g><g fill="#ffffff" fill-opacity="1"><g transform="translate(139.155596, 271.341633)"><g><path d="M 2.1875 0 L 2.1875 -17.890625 L 7.9375 -17.890625 L 7.9375 0 Z M 2.1875 0 "/></g></g></g><g fill="#ffffff" fill-opacity="1"><g transform="translate(149.266565, 271.341633)"><g><path d="M 14.71875 0 L 7.203125 -8.6875 L 7.203125 0 L 1.921875 0 L 1.921875 -17.890625 L 6.9375 -17.890625 L 14.453125 -9.078125 L 14.453125 -17.890625 L 19.734375 -17.890625 L 19.734375 0 Z M 14.71875 0 "/></g></g></g><g fill="#ffffff" fill-opacity="1"><g transform="translate(170.918076, 271.341633)"><g><path d="M 1.921875 -17.890625 L 17.390625 -17.890625 L 17.390625 -13.59375 L 7.671875 -13.59375 L 7.671875 -11.125 L 15.984375 -11.125 L 15.984375 -7.015625 L 7.671875 -7.015625 L 7.671875 -4.296875 L 17.578125 -4.296875 L 17.578125 0 L 1.921875 0 Z M 1.921875 -17.890625 "/></g></g></g><g fill="#ffffff" fill-opacity="1"><g transform="translate(189.684451, 271.341633)"><g/></g></g><g fill="#ffffff" fill-opacity="1"><g transform="translate(198.339857, 271.341633)"><g><path d="M 13.984375 0 L 13.984375 -6.78125 L 7.671875 -6.78125 L 7.671875 0 L 1.921875 0 L 1.921875 -17.890625 L 7.671875 -17.890625 L 7.671875 -11.359375 L 13.984375 -11.359375 L 13.984375 -17.890625 L 19.734375 -17.890625 L 19.734375 0 Z M 13.984375 0 "/></g></g></g><g fill="#ffffff" fill-opacity="1"><g transform="translate(219.991368, 271.341633)"><g><path d="M 10.8125 -18.203125 C 13.894531 -18.203125 16.273438 -17.410156 17.953125 -15.828125 C 19.640625 -14.253906 20.484375 -11.957031 20.484375 -8.9375 C 20.484375 -5.925781 19.640625 -3.628906 17.953125 -2.046875 C 16.273438 -0.472656 13.894531 0.3125 10.8125 0.3125 C 7.726562 0.3125 5.347656 -0.46875 3.671875 -2.03125 C 2.003906 -3.601562 1.171875 -5.90625 1.171875 -8.9375 C 1.171875 -11.976562 2.003906 -14.28125 3.671875 -15.84375 C 5.347656 -17.414062 7.726562 -18.203125 10.8125 -18.203125 Z M 10.8125 -13.90625 C 9.582031 -13.90625 8.644531 -13.53125 8 -12.78125 C 7.363281 -12.039062 7.046875 -11.039062 7.046875 -9.78125 L 7.046875 -8.109375 C 7.046875 -6.847656 7.363281 -5.84375 8 -5.09375 C 8.644531 -4.351562 9.582031 -3.984375 10.8125 -3.984375 C 12.039062 -3.984375 12.976562 -4.351562 13.625 -5.09375 C 14.28125 -5.84375 14.609375 -6.847656 14.609375 -8.109375 L 14.609375 -9.78125 C 14.609375 -11.039062 14.28125 -12.039062 13.625 -12.78125 C 12.976562 -13.53125 12.039062 -13.90625 10.8125 -13.90625 Z M 10.8125 -13.90625 "/></g></g></g><g fill="#ffffff" fill-opacity="1"><g transform="translate(241.642879, 271.341633)"><g><path d="M 18.90625 -12.40625 C 18.90625 -11.3125 18.609375 -10.320312 18.015625 -9.4375 C 17.429688 -8.550781 16.570312 -7.898438 15.4375 -7.484375 L 19.421875 0 L 12.96875 0 L 9.796875 -6.53125 L 7.671875 -6.53125 L 7.671875 0 L 1.921875 0 L 1.921875 -17.890625 L 12.875 -17.890625 C 14.15625 -17.890625 15.25 -17.640625 16.15625 -17.140625 C 17.070312 -16.648438 17.757812 -15.984375 18.21875 -15.140625 C 18.675781 -14.304688 18.90625 -13.394531 18.90625 -12.40625 Z M 13.046875 -12.171875 C 13.046875 -12.640625 12.890625 -13.03125 12.578125 -13.34375 C 12.265625 -13.65625 11.882812 -13.8125 11.4375 -13.8125 L 7.671875 -13.8125 L 7.671875 -10.5 L 11.4375 -10.5 C 11.882812 -10.5 12.265625 -10.660156 12.578125 -10.984375 C 12.890625 -11.304688 13.046875 -11.703125 13.046875 -12.171875 Z M 13.046875 -12.171875 "/></g></g></g><g fill="#ffffff" fill-opacity="1"><g transform="translate(261.864816, 271.341633)"><g><path d="M 2.1875 0 L 2.1875 -17.890625 L 7.9375 -17.890625 L 7.9375 0 Z M 2.1875 0 "/></g></g></g><g fill="#ffffff" fill-opacity="1"><g transform="translate(271.975785, 271.341633)"><g><path d="M 9.46875 -4.296875 L 17.96875 -4.296875 L 17.96875 0 L 0.625 0 L 0.625 -1.84375 L 8.921875 -13.59375 L 1.25 -13.59375 L 1.25 -17.890625 L 17.765625 -17.890625 L 17.765625 -16.046875 Z M 9.46875 -4.296875 "/></g></g></g><g fill="#ffffff" fill-opacity="1"><g transform="translate(290.742172, 271.341633)"><g><path d="M 10.8125 -18.203125 C 13.894531 -18.203125 16.273438 -17.410156 17.953125 -15.828125 C 19.640625 -14.253906 20.484375 -11.957031 20.484375 -8.9375 C 20.484375 -5.925781 19.640625 -3.628906 17.953125 -2.046875 C 16.273438 -0.472656 13.894531 0.3125 10.8125 0.3125 C 7.726562 0.3125 5.347656 -0.46875 3.671875 -2.03125 C 2.003906 -3.601562 1.171875 -5.90625 1.171875 -8.9375 C 1.171875 -11.976562 2.003906 -14.28125 3.671875 -15.84375 C 5.347656 -17.414062 7.726562 -18.203125 10.8125 -18.203125 Z M 10.8125 -13.90625 C 9.582031 -13.90625 8.644531 -13.53125 8 -12.78125 C 7.363281 -12.039062 7.046875 -11.039062 7.046875 -9.78125 L 7.046875 -8.109375 C 7.046875 -6.847656 7.363281 -5.84375 8 -5.09375 C 8.644531 -4.351562 9.582031 -3.984375 10.8125 -3.984375 C 12.039062 -3.984375 12.976562 -4.351562 13.625 -5.09375 C 14.28125 -5.84375 14.609375 -6.847656 14.609375 -8.109375 L 14.609375 -9.78125 C 14.609375 -11.039062 14.28125 -12.039062 13.625 -12.78125 C 12.976562 -13.53125 12.039062 -13.90625 10.8125 -13.90625 Z M 10.8125 -13.90625 "/></g></g></g><g fill="#ffffff" fill-opacity="1"><g transform="translate(312.393683, 271.341633)"><g><path d="M 14.71875 0 L 7.203125 -8.6875 L 7.203125 0 L 1.921875 0 L 1.921875 -17.890625 L 6.9375 -17.890625 L 14.453125 -9.078125 L 14.453125 -17.890625 L 19.734375 -17.890625 L 19.734375 0 Z M 14.71875 0 "/></g></g></g><g fill="#ffffff" fill-opacity="1"><g transform="translate(40.783771, 301.631903)"><g><path d="M 13.984375 0 L 13.984375 -6.78125 L 7.671875 -6.78125 L 7.671875 0 L 1.921875 0 L 1.921875 -17.890625 L 7.671875 -17.890625 L 7.671875 -11.359375 L 13.984375 -11.359375 L 13.984375 -17.890625 L 19.734375 -17.890625 L 19.734375 0 Z M 13.984375 0 "/></g></g></g><g fill="#ffffff" fill-opacity="1"><g transform="translate(62.435282, 301.631903)"><g><path d="M 1.921875 -17.890625 L 17.390625 -17.890625 L 17.390625 -13.59375 L 7.671875 -13.59375 L 7.671875 -11.125 L 15.984375 -11.125 L 15.984375 -7.015625 L 7.671875 -7.015625 L 7.671875 -4.296875 L 17.578125 -4.296875 L 17.578125 0 L 1.921875 0 Z M 1.921875 -17.890625 "/></g></g></g><g fill="#ffffff" fill-opacity="1"><g transform="translate(81.201657, 301.631903)"><g><path d="M 13.90625 0 L 13.15625 -2.515625 L 6.890625 -2.515625 L 6.140625 0 L 0.265625 0 L 6.78125 -17.890625 L 13.46875 -17.890625 L 20 0 Z M 8.09375 -6.53125 L 11.953125 -6.53125 L 10.09375 -12.890625 L 9.984375 -12.890625 Z M 8.09375 -6.53125 "/></g></g></g><g fill="#ffffff" fill-opacity="1"><g transform="translate(101.423595, 301.631903)"><g><path d="M 9.671875 -17.890625 C 15.929688 -17.890625 19.0625 -14.90625 19.0625 -8.9375 C 19.0625 -2.976562 15.929688 0 9.671875 0 L 1.921875 0 L 1.921875 -17.890625 Z M 7.671875 -4.296875 L 9.5625 -4.296875 C 11.976562 -4.296875 13.1875 -5.582031 13.1875 -8.15625 L 13.1875 -9.71875 C 13.1875 -12.300781 11.976562 -13.59375 9.5625 -13.59375 L 7.671875 -13.59375 Z M 7.671875 -4.296875 "/></g></g></g><g fill="#ffffff" fill-opacity="1"><g transform="translate(121.645532, 301.631903)"><g><path d="M 1.921875 -17.890625 L 7.671875 -17.890625 L 7.671875 -4.578125 L 16.84375 -4.578125 L 16.84375 0 L 1.921875 0 Z M 1.921875 -17.890625 "/></g></g></g><g fill="#ffffff" fill-opacity="1"><g transform="translate(138.982334, 301.631903)"><g><path d="M 2.1875 0 L 2.1875 -17.890625 L 7.9375 -17.890625 L 7.9375 0 Z M 2.1875 0 "/></g></g></g><g fill="#ffffff" fill-opacity="1"><g transform="translate(149.093303, 301.631903)"><g><path d="M 14.71875 0 L 7.203125 -8.6875 L 7.203125 0 L 1.921875 0 L 1.921875 -17.890625 L 6.9375 -17.890625 L 14.453125 -9.078125 L 14.453125 -17.890625 L 19.734375 -17.890625 L 19.734375 0 Z M 14.71875 0 "/></g></g></g><g fill="#ffffff" fill-opacity="1"><g transform="translate(170.744814, 301.631903)"><g><path d="M 1.921875 -17.890625 L 17.390625 -17.890625 L 17.390625 -13.59375 L 7.671875 -13.59375 L 7.671875 -11.125 L 15.984375 -11.125 L 15.984375 -7.015625 L 7.671875 -7.015625 L 7.671875 -4.296875 L 17.578125 -4.296875 L 17.578125 0 L 1.921875 0 Z M 1.921875 -17.890625 "/></g></g></g><g fill="#ffffff" fill-opacity="1"><g transform="translate(189.511189, 301.631903)"><g/></g></g><g fill="#ffffff" fill-opacity="1"><g transform="translate(198.166595, 301.631903)"><g><path d="M 13.984375 0 L 13.984375 -6.78125 L 7.671875 -6.78125 L 7.671875 0 L 1.921875 0 L 1.921875 -17.890625 L 7.671875 -17.890625 L 7.671875 -11.359375 L 13.984375 -11.359375 L 13.984375 -17.890625 L 19.734375 -17.890625 L 19.734375 0 Z M 13.984375 0 "/></g></g></g><g fill="#ffffff" fill-opacity="1"><g transform="translate(219.818106, 301.631903)"><g><path d="M 10.8125 -18.203125 C 13.894531 -18.203125 16.273438 -17.410156 17.953125 -15.828125 C 19.640625 -14.253906 20.484375 -11.957031 20.484375 -8.9375 C 20.484375 -5.925781 19.640625 -3.628906 17.953125 -2.046875 C 16.273438 -0.472656 13.894531 0.3125 10.8125 0.3125 C 7.726562 0.3125 5.347656 -0.46875 3.671875 -2.03125 C 2.003906 -3.601562 1.171875 -5.90625 1.171875 -8.9375 C 1.171875 -11.976562 2.003906 -14.28125 3.671875 -15.84375 C 5.347656 -17.414062 7.726562 -18.203125 10.8125 -18.203125 Z M 10.8125 -13.90625 C 9.582031 -13.90625 8.644531 -13.53125 8 -12.78125 C 7.363281 -12.039062 7.046875 -11.039062 7.046875 -9.78125 L 7.046875 -8.109375 C 7.046875 -6.847656 7.363281 -5.84375 8 -5.09375 C 8.644531 -4.351562 9.582031 -3.984375 10.8125 -3.984375 C 12.039062 -3.984375 12.976562 -4.351562 13.625 -5.09375 C 14.28125 -5.84375 14.609375 -6.847656 14.609375 -8.109375 L 14.609375 -9.78125 C 14.609375 -11.039062 14.28125 -12.039062 13.625 -12.78125 C 12.976562 -13.53125 12.039062 -13.90625 10.8125 -13.90625 Z M 10.8125 -13.90625 "/></g></g></g><g fill="#ffffff" fill-opacity="1"><g transform="translate(241.469617, 301.631903)"><g><path d="M 18.90625 -12.40625 C 18.90625 -11.3125 18.609375 -10.320312 18.015625 -9.4375 C 17.429688 -8.550781 16.570312 -7.898438 15.4375 -7.484375 L 19.421875 0 L 12.96875 0 L 9.796875 -6.53125 L 7.671875 -6.53125 L 7.671875 0 L 1.921875 0 L 1.921875 -17.890625 L 12.875 -17.890625 C 14.15625 -17.890625 15.25 -17.640625 16.15625 -17.140625 C 17.070312 -16.648438 17.757812 -15.984375 18.21875 -15.140625 C 18.675781 -14.304688 18.90625 -13.394531 18.90625 -12.40625 Z M 13.046875 -12.171875 C 13.046875 -12.640625 12.890625 -13.03125 12.578125 -13.34375 C 12.265625 -13.65625 11.882812 -13.8125 11.4375 -13.8125 L 7.671875 -13.8125 L 7.671875 -10.5 L 11.4375 -10.5 C 11.882812 -10.5 12.265625 -10.660156 12.578125 -10.984375 C 12.890625 -11.304688 13.046875 -11.703125 13.046875 -12.171875 Z M 13.046875 -12.171875 "/></g></g></g><g fill="#ffffff" fill-opacity="1"><g transform="translate(261.691555, 301.631903)"><g><path d="M 2.1875 0 L 2.1875 -17.890625 L 7.9375 -17.890625 L 7.9375 0 Z M 2.1875 0 "/></g></g></g><g fill="#ffffff" fill-opacity="1"><g transform="translate(271.802523, 301.631903)"><g><path d="M 9.46875 -4.296875 L 17.96875 -4.296875 L 17.96875 0 L 0.625 0 L 0.625 -1.84375 L 8.921875 -13.59375 L 1.25 -13.59375 L 1.25 -17.890625 L 17.765625 -17.890625 L 17.765625 -16.046875 Z M 9.46875 -4.296875 "/></g></g></g><g fill="#ffffff" fill-opacity="1"><g transform="translate(290.56891, 301.631903)"><g><path d="M 10.8125 -18.203125 C 13.894531 -18.203125 16.273438 -17.410156 17.953125 -15.828125 C 19.640625 -14.253906 20.484375 -11.957031 20.484375 -8.9375 C 20.484375 -5.925781 19.640625 -3.628906 17.953125 -2.046875 C 16.273438 -0.472656 13.894531 0.3125 10.8125 0.3125 C 7.726562 0.3125 5.347656 -0.46875 3.671875 -2.03125 C 2.003906 -3.601562 1.171875 -5.90625 1.171875 -8.9375 C 1.171875 -11.976562 2.003906 -14.28125 3.671875 -15.84375 C 5.347656 -17.414062 7.726562 -18.203125 10.8125 -18.203125 Z M 10.8125 -13.90625 C 9.582031 -13.90625 8.644531 -13.53125 8 -12.78125 C 7.363281 -12.039062 7.046875 -11.039062 7.046875 -9.78125 L 7.046875 -8.109375 C 7.046875 -6.847656 7.363281 -5.84375 8 -5.09375 C 8.644531 -4.351562 9.582031 -3.984375 10.8125 -3.984375 C 12.039062 -3.984375 12.976562 -4.351562 13.625 -5.09375 C 14.28125 -5.84375 14.609375 -6.847656 14.609375 -8.109375 L 14.609375 -9.78125 C 14.609375 -11.039062 14.28125 -12.039062 13.625 -12.78125 C 12.976562 -13.53125 12.039062 -13.90625 10.8125 -13.90625 Z M 10.8125 -13.90625 "/></g></g></g><g fill="#ffffff" fill-opacity="1"><g transform="translate(312.220421, 301.631903)"><g><path d="M 14.71875 0 L 7.203125 -8.6875 L 7.203125 0 L 1.921875 0 L 1.921875 -17.890625 L 6.9375 -17.890625 L 14.453125 -9.078125 L 14.453125 -17.890625 L 19.734375 -17.890625 L 19.734375 0 Z M 14.71875 0 "/></g></g></g><g fill="#ffffff" fill-opacity="1"><g transform="translate(40.783771, 331.391637)"><g><path d="M 13.984375 0 L 13.984375 -6.78125 L 7.671875 -6.78125 L 7.671875 0 L 1.921875 0 L 1.921875 -17.890625 L 7.671875 -17.890625 L 7.671875 -11.359375 L 13.984375 -11.359375 L 13.984375 -17.890625 L 19.734375 -17.890625 L 19.734375 0 Z M 13.984375 0 "/></g></g></g><g fill="#ffffff" fill-opacity="1"><g transform="translate(62.435282, 331.391637)"><g><path d="M 1.921875 -17.890625 L 17.390625 -17.890625 L 17.390625 -13.59375 L 7.671875 -13.59375 L 7.671875 -11.125 L 15.984375 -11.125 L 15.984375 -7.015625 L 7.671875 -7.015625 L 7.671875 -4.296875 L 17.578125 -4.296875 L 17.578125 0 L 1.921875 0 Z M 1.921875 -17.890625 "/></g></g></g><g fill="#ffffff" fill-opacity="1"><g transform="translate(81.201657, 331.391637)"><g><path d="M 13.90625 0 L 13.15625 -2.515625 L 6.890625 -2.515625 L 6.140625 0 L 0.265625 0 L 6.78125 -17.890625 L 13.46875 -17.890625 L 20 0 Z M 8.09375 -6.53125 L 11.953125 -6.53125 L 10.09375 -12.890625 L 9.984375 -12.890625 Z M 8.09375 -6.53125 "/></g></g></g><g fill="#ffffff" fill-opacity="1"><g transform="translate(101.423595, 331.391637)"><g><path d="M 9.671875 -17.890625 C 15.929688 -17.890625 19.0625 -14.90625 19.0625 -8.9375 C 19.0625 -2.976562 15.929688 0 9.671875 0 L 1.921875 0 L 1.921875 -17.890625 Z M 7.671875 -4.296875 L 9.5625 -4.296875 C 11.976562 -4.296875 13.1875 -5.582031 13.1875 -8.15625 L 13.1875 -9.71875 C 13.1875 -12.300781 11.976562 -13.59375 9.5625 -13.59375 L 7.671875 -13.59375 Z M 7.671875 -4.296875 "/></g></g></g><g fill="#ffffff" fill-opacity="1"><g transform="translate(121.645532, 331.391637)"><g><path d="M 1.921875 -17.890625 L 7.671875 -17.890625 L 7.671875 -4.578125 L 16.84375 -4.578125 L 16.84375 0 L 1.921875 0 Z M 1.921875 -17.890625 "/></g></g></g><g fill="#ffffff" fill-opacity="1"><g transform="translate(138.982334, 331.391637)"><g><path d="M 2.1875 0 L 2.1875 -17.890625 L 7.9375 -17.890625 L 7.9375 0 Z M 2.1875 0 "/></g></g></g><g fill="#ffffff" fill-opacity="1"><g transform="translate(149.093303, 331.391637)"><g><path d="M 14.71875 0 L 7.203125 -8.6875 L 7.203125 0 L 1.921875 0 L 1.921875 -17.890625 L 6.9375 -17.890625 L 14.453125 -9.078125 L 14.453125 -17.890625 L 19.734375 -17.890625 L 19.734375 0 Z M 14.71875 0 "/></g></g></g><g fill="#ffffff" fill-opacity="1"><g transform="translate(170.744814, 331.391637)"><g><path d="M 1.921875 -17.890625 L 17.390625 -17.890625 L 17.390625 -13.59375 L 7.671875 -13.59375 L 7.671875 -11.125 L 15.984375 -11.125 L 15.984375 -7.015625 L 7.671875 -7.015625 L 7.671875 -4.296875 L 17.578125 -4.296875 L 17.578125 0 L 1.921875 0 Z M 1.921875 -17.890625 "/></g></g></g><g fill="#ffffff" fill-opacity="1"><g transform="translate(189.511189, 331.391637)"><g/></g></g><g fill="#ffffff" fill-opacity="1"><g transform="translate(198.166595, 331.391637)"><g><path d="M 13.984375 0 L 13.984375 -6.78125 L 7.671875 -6.78125 L 7.671875 0 L 1.921875 0 L 1.921875 -17.890625 L 7.671875 -17.890625 L 7.671875 -11.359375 L 13.984375 -11.359375 L 13.984375 -17.890625 L 19.734375 -17.890625 L 19.734375 0 Z M 13.984375 0 "/></g></g></g><g fill="#ffffff" fill-opacity="1"><g transform="translate(219.818106, 331.391637)"><g><path d="M 10.8125 -18.203125 C 13.894531 -18.203125 16.273438 -17.410156 17.953125 -15.828125 C 19.640625 -14.253906 20.484375 -11.957031 20.484375 -8.9375 C 20.484375 -5.925781 19.640625 -3.628906 17.953125 -2.046875 C 16.273438 -0.472656 13.894531 0.3125 10.8125 0.3125 C 7.726562 0.3125 5.347656 -0.46875 3.671875 -2.03125 C 2.003906 -3.601562 1.171875 -5.90625 1.171875 -8.9375 C 1.171875 -11.976562 2.003906 -14.28125 3.671875 -15.84375 C 5.347656 -17.414062 7.726562 -18.203125 10.8125 -18.203125 Z M 10.8125 -13.90625 C 9.582031 -13.90625 8.644531 -13.53125 8 -12.78125 C 7.363281 -12.039062 7.046875 -11.039062 7.046875 -9.78125 L 7.046875 -8.109375 C 7.046875 -6.847656 7.363281 -5.84375 8 -5.09375 C 8.644531 -4.351562 9.582031 -3.984375 10.8125 -3.984375 C 12.039062 -3.984375 12.976562 -4.351562 13.625 -5.09375 C 14.28125 -5.84375 14.609375 -6.847656 14.609375 -8.109375 L 14.609375 -9.78125 C 14.609375 -11.039062 14.28125 -12.039062 13.625 -12.78125 C 12.976562 -13.53125 12.039062 -13.90625 10.8125 -13.90625 Z M 10.8125 -13.90625 "/></g></g></g><g fill="#ffffff" fill-opacity="1"><g transform="translate(241.469617, 331.391637)"><g><path d="M 18.90625 -12.40625 C 18.90625 -11.3125 18.609375 -10.320312 18.015625 -9.4375 C 17.429688 -8.550781 16.570312 -7.898438 15.4375 -7.484375 L 19.421875 0 L 12.96875 0 L 9.796875 -6.53125 L 7.671875 -6.53125 L 7.671875 0 L 1.921875 0 L 1.921875 -17.890625 L 12.875 -17.890625 C 14.15625 -17.890625 15.25 -17.640625 16.15625 -17.140625 C 17.070312 -16.648438 17.757812 -15.984375 18.21875 -15.140625 C 18.675781 -14.304688 18.90625 -13.394531 18.90625 -12.40625 Z M 13.046875 -12.171875 C 13.046875 -12.640625 12.890625 -13.03125 12.578125 -13.34375 C 12.265625 -13.65625 11.882812 -13.8125 11.4375 -13.8125 L 7.671875 -13.8125 L 7.671875 -10.5 L 11.4375 -10.5 C 11.882812 -10.5 12.265625 -10.660156 12.578125 -10.984375 C 12.890625 -11.304688 13.046875 -11.703125 13.046875 -12.171875 Z M 13.046875 -12.171875 "/></g></g></g><g fill="#ffffff" fill-opacity="1"><g transform="translate(261.691555, 331.391637)"><g><path d="M 2.1875 0 L 2.1875 -17.890625 L 7.9375 -17.890625 L 7.9375 0 Z M 2.1875 0 "/></g></g></g><g fill="#ffffff" fill-opacity="1"><g transform="translate(271.802523, 331.391637)"><g><path d="M 9.46875 -4.296875 L 17.96875 -4.296875 L 17.96875 0 L 0.625 0 L 0.625 -1.84375 L 8.921875 -13.59375 L 1.25 -13.59375 L 1.25 -17.890625 L 17.765625 -17.890625 L 17.765625 -16.046875 Z M 9.46875 -4.296875 "/></g></g></g><g fill="#ffffff" fill-opacity="1"><g transform="translate(290.56891, 331.391637)"><g><path d="M 10.8125 -18.203125 C 13.894531 -18.203125 16.273438 -17.410156 17.953125 -15.828125 C 19.640625 -14.253906 20.484375 -11.957031 20.484375 -8.9375 C 20.484375 -5.925781 19.640625 -3.628906 17.953125 -2.046875 C 16.273438 -0.472656 13.894531 0.3125 10.8125 0.3125 C 7.726562 0.3125 5.347656 -0.46875 3.671875 -2.03125 C 2.003906 -3.601562 1.171875 -5.90625 1.171875 -8.9375 C 1.171875 -11.976562 2.003906 -14.28125 3.671875 -15.84375 C 5.347656 -17.414062 7.726562 -18.203125 10.8125 -18.203125 Z M 10.8125 -13.90625 C 9.582031 -13.90625 8.644531 -13.53125 8 -12.78125 C 7.363281 -12.039062 7.046875 -11.039062 7.046875 -9.78125 L 7.046875 -8.109375 C 7.046875 -6.847656 7.363281 -5.84375 8 -5.09375 C 8.644531 -4.351562 9.582031 -3.984375 10.8125 -3.984375 C 12.039062 -3.984375 12.976562 -4.351562 13.625 -5.09375 C 14.28125 -5.84375 14.609375 -6.847656 14.609375 -8.109375 L 14.609375 -9.78125 C 14.609375 -11.039062 14.28125 -12.039062 13.625 -12.78125 C 12.976562 -13.53125 12.039062 -13.90625 10.8125 -13.90625 Z M 10.8125 -13.90625 "/></g></g></g><g fill="#ffffff" fill-opacity="1"><g transform="translate(312.220421, 331.391637)"><g><path d="M 14.71875 0 L 7.203125 -8.6875 L 7.203125 0 L 1.921875 0 L 1.921875 -17.890625 L 6.9375 -17.890625 L 14.453125 -9.078125 L 14.453125 -17.890625 L 19.734375 -17.890625 L 19.734375 0 Z M 14.71875 0 "/></g></g></g></svg>