<svg width="500" height="500" viewBox="0 0 500 500" fill="none" xmlns="http://www.w3.org/2000/svg">
<g clip-path="url(#clip0_1_2)">
<rect width="500" height="500" fill="#002868"/>
<path d="M12 12H488V488H12V12Z" fill="#002868" stroke="#BF0A30" stroke-width="24"/>
<path d="M45 428V401.5H66C70.6667 401.5 74.8333 400.833 78.5 399.5C82.5 397.833 85.6667 394.667 88 390C90.3333 385.333 91.5 378.333 91.5 369V128C91.5 119 90.3333 112.333 88 108C85.6667 103.667 82.5 100.833 78.5 99.5C74.8333 98.1667 70.6667 97.5 66 97.5H45V71H217.5V97.5H196C191.333 97.5 187 98.3333 183 100C179.333 101.333 176.333 104.333 174 109C171.667 113.333 170.5 120.333 170.5 130V226.5H301V130C301 120.333 299.833 113.333 297.5 109C295.167 104.333 292 101.333 288 100C284.333 98.3333 280.167 97.5 275.5 97.5H254V71H426.5V97.5H405.5C400.833 97.5 396.5 98.3333 392.5 100C388.833 101.333 385.833 104.333 383.5 109C381.167 113.333 380 120.333 380 130V371.5C380 380.167 381.167 386.667 383.5 391C385.833 395.333 389 398.167 393 399.5C397 400.833 401.167 401.5 405.5 401.5H426.5V428H254V401.5H275.5C280.167 401.5 284.333 400.833 288 399.5C292 397.833 295.167 394.667 297.5 390C299.833 385.333 301 378.333 301 369V257H170.5V369C170.5 378.333 171.667 385.333 174 390C176.333 394.667 179.333 397.833 183 399.5C187 400.833 191.333 401.5 196 401.5H217.5V428H45Z" fill="white"/>
<path d="M73.0374 428V401.5H94.0374C98.7041 401.5 102.871 400.833 106.537 399.5C110.537 397.833 113.704 394.667 116.037 390C118.371 385.333 119.537 378.333 119.537 369V128C119.537 119 118.371 112.333 116.037 108C113.704 103.667 110.537 100.833 106.537 99.5C102.871 98.1667 98.7041 97.5 94.0374 97.5H73.0374V71H245.537V97.5H224.037C219.371 97.5 215.037 98.3333 211.037 100C207.371 101.333 204.371 104.333 202.037 109C199.704 113.333 198.537 120.333 198.537 130V226.5H329.037V130C329.037 120.333 327.871 113.333 325.537 109C323.204 104.333 320.037 101.333 316.037 100C312.371 98.3333 308.204 97.5 303.537 97.5H282.037V71H454.537V97.5H433.537C428.871 97.5 424.537 98.3333 420.537 100C416.871 101.333 413.871 104.333 411.537 109C409.204 113.333 408.037 120.333 408.037 130V371.5C408.037 380.167 409.204 386.667 411.537 391C413.871 395.333 417.037 398.167 421.037 399.5C425.037 400.833 429.204 401.5 433.537 401.5H454.537V428H282.037V401.5H303.537C308.204 401.5 312.371 400.833 316.037 399.5C320.037 397.833 323.204 394.667 325.537 390C327.871 385.333 329.037 378.333 329.037 369V257H198.537V369C198.537 378.333 199.704 385.333 202.037 390C204.371 394.667 207.371 397.833 211.037 399.5C215.037 400.833 219.371 401.5 224.037 401.5H245.537V428H73.0374Z" fill="#BF0A30"/>
</g>
<defs>
<clipPath id="clip0_1_2">
<rect width="500" height="500" fill="white"/>
</clipPath>
</defs>
</svg>
